<?xml version="1.0" encoding="UTF-8"?>
<svg id="_Слой_2" data-name="Слой 2" xmlns="http://www.w3.org/2000/svg" viewBox="0 0 201 73">
  <defs>
    <style>
      .cls-1 {
        fill: #1b1b1b;
      }
    </style>
  </defs>
  <g id="_Слой_1-2" data-name="Слой 1">
    <g>
      <polygon class="cls-1" points="2.54 71.9 11.84 62.62 11.84 21.73 21.22 12.35 189.84 12.35 199.66 2.54 199.66 62.52 190.27 71.9 2.54 71.9"/>
      <path class="cls-1" d="M198.61,5.08v57l-3.01,3.01-5.75,5.75H5.09l7.19-7.18.62-.62V22.17l8.77-8.77h168.61l.62-.62,7.72-7.71M200.71,0l-11.31,11.3H20.79c-3.91,3.91-6.09,6.09-10,10v40.88L0,72.96h190.71c3.91-3.91,6.09-6.09,10-10V0h0Z"/>
    </g>
  </g>
</svg>