<?xml version="1.0" encoding="UTF-8"?>
<svg id="_Слой_2" data-name="Слой 2" xmlns="http://www.w3.org/2000/svg" viewBox="0 0 28 28">
  <defs>
    <style>
      .cls-1 {
        fill: #1b1b1b;
      }
    </style>
  </defs>
  <g id="_Слой_1-2" data-name="Слой 1">
    <path class="cls-1" d="M27.52,5.03c-.6.65-1.21,1.33-1.78,2.02-.21.25-.41.51-.62.76v15.21l-2.11,2.11H4.56l-2.11-2.11V4.56l2.11-2.11h18.29c.23-.17,1.13-.85,2.09-1.54-.28-.28-.58-.58-.91-.91H3.54C2.16,1.38,1.38,2.16,0,3.54v20.49c1.38,1.38,2.16,2.16,3.54,3.54h20.49c1.38-1.38,2.16-2.16,3.54-3.54V4.97s-.04.04-.05.06Z"/>
  </g>
</svg>