<?xml version="1.0" encoding="UTF-8"?>
<svg id="_Слой_2" data-name="Слой 2" xmlns="http://www.w3.org/2000/svg" viewBox="0 0 206 30">
  <defs>
    <style>
      .cls-1 {
        fill: none;
      }

      .cls-2 {
        fill: #1b1b1b;
      }
    </style>
  </defs>
  <g id="_Слой_1-2" data-name="Слой 1">
    <polygon class="cls-2" points="205.51 25.43 205.51 0 163.96 0 163.96 25.43 154.5 25.43 154.5 0 72.47 0 72.47 25.43 4.25 25.43 0 25.43 0 29.68 4.25 29.68 76.71 29.68 76.71 27.73 76.72 27.73 76.72 4.25 150.24 4.25 150.24 25.43 150.23 25.43 150.23 29.68 168.19 29.68 168.19 27.73 168.22 27.73 168.22 4.25 201.25 4.25 201.25 25.43 201.23 25.43 201.23 29.68 205.51 29.68 205.51 25.43"/>
    <polyline class="cls-1" points="4.25 29.68 4.25 25.43 0 25.43"/>
  </g>
</svg>