<?xml version="1.0" encoding="UTF-8"?>
<svg id="_Слой_2" data-name="Слой 2" xmlns="http://www.w3.org/2000/svg" xmlns:xlink="http://www.w3.org/1999/xlink" viewBox="0 0 740 73">
  <defs>
    <style>
      .cls-1 {
        fill: url(#_Безымянный_градиент_12);
      }

      .cls-2 {
        fill: #1b1b1b;
      }
    </style>
    <linearGradient id="_Безымянный_градиент_12" data-name="Безымянный градиент 12" x1="28.98" y1="36.15" x2="739.95" y2="36.15" gradientUnits="userSpaceOnUse">
      <stop offset="0" stop-color="#fff" stop-opacity=".5"/>
      <stop offset="1" stop-color="#fff" stop-opacity="0"/>
    </linearGradient>
  </defs>
  <g id="_Слой_1-2" data-name="Слой 1">
    <polygon class="cls-1" points="739.95 0 739.95 4 487.43 4 419.39 72.3 28.98 72.3 28.98 70 418.84 69.87 488.68 0 739.95 0"/>
    <polygon class="cls-2" points="0 39.07 1.76 39.07 30.74 68.05 175.88 68.05 243.93 0 249.94 0 181.9 68.05 211.06 68.05 279.11 0 285.12 0 217.07 68.05 246.34 68.05 314.38 0 320.4 0 252.35 68.05 281.56 68.05 349.6 0 355.61 0 287.57 68.05 316.65 68.05 384.7 0 390.71 0 322.66 68.05 351.76 68.05 419.8 0 425.82 0 357.77 68.05 386.9 68.05 454.95 0 460.96 0 392.92 68.05 417.63 68.05 485.67 0 488.68 0 739.95 0 739.95 4 735.7 4 487.43 4 419.39 72.3 28.98 72.3 0 43.32 0 39.07"/>
  </g>
</svg>