<?xml version="1.0" encoding="UTF-8"?>
<svg id="_Слой_2" data-name="Слой 2" xmlns="http://www.w3.org/2000/svg" viewBox="0 0 354 191">
  <defs>
    <style>
      .cls-1 {
        fill: #fbf501;
      }
    </style>
  </defs>
  <g id="_Слой_1-2" data-name="Слой 1">
    <g id="_3" data-name="3">
      <g id="_история_2" data-name="история 2">
        <path class="cls-1" d="M327.49,13.79l-13.4-13.4h-111.62l-13.4,13.4h-34.24l-7.28-7.28-6.51-6.51H38.09l-.66.66h0S0,38.09,0,38.09v52.44l19.73-19.72v6.5L0,97.04v9.21l19.73-19.73v6.51L0,112.75v9.21l19.73-19.73v6.97L0,128.93v62.21h322.24l22.56-22.58v-26.27l9.67-9.67V13.79h-26.98ZM19.73,184.63H6.51v-53.01l13.22-13.22v66.22ZM338.29,165.87l-18.76,18.76h-96.75l13.2-13.2h79.68l22.63-22.63v17.06ZM347.96,129.93l-35,35h-79.68l-19.7,19.7H26.23V21.82c5.98-5.98,9.33-9.33,15.31-15.31h96.81l13.79,13.79h195.83v109.64Z"/>
      </g>
    </g>
  </g>
</svg>