<?xml version="1.0" encoding="UTF-8"?>
<svg id="_Слой_2" data-name="Слой 2" 
     xmlns="http://www.w3.org/2000/svg" 
     xmlns:xlink="http://www.w3.org/1999/xlink" 
     viewBox="0 0 58 173"
     width="100%" height="100%" preserveAspectRatio="xMidYMid meet">

  <defs>
    <style>
      .cls-black {
        fill: #010101;
      }
      .cls-yellow {
        fill: url(#yellow-gradient);
      }
    </style>

    <linearGradient id="yellow-gradient" x1="58.08" y1="86.69" x2="-421.14" y2="86.69" gradientUnits="userSpaceOnUse">
      <stop offset="0" stop-color="#f3e724"/>
      <stop offset="1" stop-color="#f3e724" stop-opacity="0"/>
    </linearGradient>
  </defs>

  <g id="_Слой_1-2" data-name="Слой 1">
    <g>
      <!-- Чёрная заливка без градиента -->
      <polygon class="cls-black" points="0.25 1.83 0.25 171.55 0.24 171.55 0.24 171.59 0.25 171.59 56.1 115.43 56.1 57.95 0.25 1.83"/>
      
      <!-- Жёлтый плавный градиент -->
      <polygon class="cls-yellow" points="58.08 76.04 58 76.04 57.93 57.19 1.02 0 0.25 0 0.25 1.83 56.1 57.95 56.21 86.69 56.1 115.43 0.7 171.1 0.25 171.55 0.24 171.55 0.24 171.59 0.25 171.59 0.25 173.38 1.02 173.38 57.93 116.19 58 97.34 58.08 97.34 58.04 86.69 58.08 76.04"/>
    </g>
  </g>
</svg>
