<svg xmlns="http://www.w3.org/2000/svg"
     viewBox="0 0 360 134"
     width="100%" height="134"
     preserveAspectRatio="none">
  <defs>
    <style>
      .cls-1 {
        fill: url(#gradient-yellow);
      }
      .cls-2 {
        fill: url(#gradient-dark);
      }
    </style>
    <linearGradient id="gradient-dark" x1="1" y1="0.5" x2="0" y2="0.5" gradientUnits="objectBoundingBox">
      <stop offset="0" stop-color="#000" stop-opacity=".8"/>
      <stop offset="1" stop-color="#000" stop-opacity="0"/>
    </linearGradient>
    <linearGradient id="gradient-yellow" x1="1" y1="0.5" x2="0" y2="0.5" gradientUnits="objectBoundingBox">
  <stop offset="0" stop-color="#fbf501" stop-opacity="1"/>
  <stop offset="0.2" stop-color="#fbf501" stop-opacity="1"/>   <!-- задержка -->
  <stop offset="1" stop-color="#fbf501" stop-opacity="0"/>
</linearGradient>
  </defs>

  <g>
    <polyline class="cls-2" points="5.27 132.87 314.96 132.87 358.19 89.4 358.19 44.9 314.96 1.46 1.32 1.81"/>
    <polygon class="cls-1" points="359.69 67.15 359.72 58.91 359.66 58.91 359.6 44.32 315.55 .05 0 0 1.32 1.42 314.96 1.46 358.19 44.9 358.27 67.15 358.19 89.4 314.96 132.84 1.32 132.88 1.32 134.3 315.55 134.25 359.6 89.98 359.66 75.39 359.72 75.39 359.69 67.15"/>
  </g>
</svg>
