<?xml version="1.0" encoding="UTF-8"?>
<svg id="_Слой_2" data-name="Слой 2" xmlns="http://www.w3.org/2000/svg" viewBox="0 0 61 61">
  <defs>
    <style>
      .cls-1 {
        fill: #1b1b1b;
      }

      .cls-2 {
        fill: #FBF501;
      }
    </style>
  </defs>
  <g id="_Слой_1-2" data-name="Слой 1">
    <g>
      <g>
        <polygon class="cls-2" points="13.91 60.54 .68 47.31 .68 .68 60.54 .68 60.54 60.54 13.91 60.54"/>
        <path class="cls-2" d="M59.87,1.35v58.52H14.19l-7.73-7.73-5.11-5.11V1.35h58.52M61.22,0H0v47.59c5.32,5.32,8.31,8.31,13.63,13.63h47.59V0h0Z"/>
      </g>
      <polygon class="cls-1" points="47.42 17.62 43.61 13.81 30.62 26.81 17.62 13.81 13.81 17.62 26.81 30.62 13.81 43.61 17.62 47.42 30.62 34.43 43.61 47.42 47.42 43.61 34.43 30.62 47.42 17.62"/>
    </g>
  </g>
</svg>