<?xml version="1.0" encoding="UTF-8"?>
<svg id="_Слой_2" data-name="Слой 2"
     xmlns="http://www.w3.org/2000/svg"
     xmlns:xlink="http://www.w3.org/1999/xlink"
     width="562" height="407"
     viewBox="0 0 562 407">
  <defs>
    <style>
      .cls-1 {
        fill: url(#_Безымянный_градиент_86-2);
      }

      .cls-2 {
        fill: url(#_Безымянный_градиент_86-3);
      }

      .cls-3 {
        fill: url(#_Безымянный_градиент_86-4);
      }

      .cls-4 {
        fill: url(#_Безымянный_градиент_86);
      }
    </style>
    <linearGradient id="_Безымянный_градиент_86" data-name="Безымянный градиент 86" x1="1278.54" y1="1204.59" x2="73.35" y2="-.6" gradientUnits="userSpaceOnUse">
      <stop offset="0" stop-color="#f3e724"/>
      <stop offset=".27" stop-color="#faf3aa"/>
      <stop offset=".51" stop-color="#f3e724"/>
      <stop offset=".77" stop-color="#f8ef8f"/>
      <stop offset="1" stop-color="#f3e724"/>
    </linearGradient>
    <linearGradient id="_Безымянный_градиент_86-2" xlink:href="#_Безымянный_градиент_86" x1="1277.56" y1="1205.56" x2="72.38" y2=".38"/>
    <linearGradient id="_Безымянный_градиент_86-3" xlink:href="#_Безымянный_градиент_86" x1="1278.67" y1="1206.44" x2="73.49" y2="1.26"/>
    <linearGradient id="_Безымянный_градиент_86-4" xlink:href="#_Безымянный_градиент_86" x1="1279.61" y1="1205.51" x2="74.42" y2=".32"/>
  </defs>
  <g id="_Слой_1-2" data-name="Слой 1">
    <polygon class="cls-4" points="42.48 393.12 26.29 403.8 26.29 406.53 29.12 406.53 29.12 405.32 45.32 394.65 45.32 313.74 26.4 294.88 26.4 136.98 40.76 122.78 40.76 66.29 67.36 39.59 67.36 21.77 68.17 21 544.87 21 561.12 37.15 562.46 37.15 562.46 34.32 562.29 34.32 546.04 18.16 67.03 18.16 64.53 20.56 64.53 38.42 37.93 65.12 37.93 121.6 23.56 135.79 23.56 296.06 42.48 314.91 42.48 393.12"/>
    <polygon class="cls-1" points="2.83 405.29 12.82 394.55 12.82 63.94 61.99 14.77 463.55 14.77 474.87 2.83 549.34 2.83 561.28 14.77 562.46 14.77 562.46 11.93 562.45 11.93 550.51 0 473.65 0 462.34 11.93 60.82 11.93 9.99 62.76 9.99 393.43 0 404.18 0 406.53 2.83 406.53 2.83 405.29"/>
    <polygon class="cls-2" points="3.66 406.46 13.65 395.72 13.65 65.11 62.82 15.94 464.38 15.94 475.7 4 550.16 4 562.1 15.94 562.46 15.94 562.46 12.29 551.33 1.17 474.48 1.17 463.16 13.1 61.64 13.1 10.81 63.93 10.81 394.6 .82 405.35 .82 406.53 3.66 406.53 3.66 406.46"/>
    <polygon class="cls-3" points="43.3 394.29 27.11 404.97 27.11 406.53 29.94 406.53 29.94 406.49 46.14 395.82 46.14 314.91 27.22 296.05 27.22 138.15 41.58 123.95 41.58 67.46 68.18 40.76 68.18 22.94 68.99 22.17 545.7 22.17 561.95 38.32 562.46 38.32 562.46 34.84 546.86 19.33 67.85 19.33 65.35 21.73 65.35 39.59 38.75 66.29 38.75 122.77 24.39 136.96 24.39 297.22 43.3 316.08 43.3 394.29"/>
  </g>
</svg>
