<?xml version="1.0" encoding="UTF-8"?>
<svg id="_Слой_2" data-name="Слой 2" xmlns="http://www.w3.org/2000/svg" viewBox="0 0 258 71">
  <defs>
    <style>
      .cls-1 {
        fill: #fbf501; /* можно убрать или оставить, если нужны другие элементы */
      }

      .cls-2 {
        font-family: BankGothicRUSSMedium, 'BankGothic RUSS';
        font-size: 22.68px;
        fill: #d011e7; /* цвет текста */
      }

      /* Меняем цвет рамки и крестика */
      #_история_2 polygon {
        fill: #d011e7;
      }

      /* Меняем цвет второго path */
      .cls-3 {
        fill: #d011e7;
      }
    </style>
  </defs>
  <g id="_Слой_1-2" data-name="Слой 1">
    <g id="_3" data-name="3">
      <g id="_история_2" data-name="история 2">
        <g>
          <g>
            <path class="cls-1" d="M68.48,0H28.72c4.29,4.29,6.69,6.69,10.97,10.97h15.42c.93.93,1.65,1.65,2.74,2.74h7.79v19.41l.83.83,25,25,.83.83h130.29c2.77,2.77,4.96,4.96,8.25,8.25h15.42c.93.93,1.65,1.65,2.74,2.74h8.84V0H68.48Z"/>
            <circle class="cls-1" cx="12.6" cy="6.19" r="2.38"/>
            <circle class="cls-1" cx="2.38" cy="6.19" r="2.38"/>
            <circle class="cls-1" cx="22.74" cy="6.19" r="2.38"/>
          </g>
          <text class="cls-2" transform="translate(83.69 23.22)"><tspan x="0" y="0">закрыть</tspan><tspan x="19.48" y="19.84">список</tspan></text>
          <g>
            <polygon points="239.37 16.31 236.05 16.31 235.1 16.76 229.78 23.2 224.46 16.76 223.51 16.31 220.19 16.31 219.24 18.32 226.53 27.13 219.24 35.94 220.19 37.95 223.51 37.95 224.46 37.5 229.78 31.06 235.1 37.5 236.05 37.95 239.37 37.95 240.32 35.94 233.03 27.13 240.32 18.32 239.37 16.31"/>
            <path class="cls-3" d="M247.09,12.46l-2.59-2.59-.72-.72h-27.9l-.72.72-2.59,2.59-.72.72v27.9l.72.72,2.59,2.59.72.72h27.9l.72-.72,2.59-2.59.72-.72V13.18l-.72-.72ZM245.36,40.07c-1.01,1.01-1.58,1.58-2.59,2.59h-25.88c-1.01-1.01-1.58-1.58-2.59-2.59V14.19c1.01-1.01,1.58-1.58,2.59-2.59h25.88c1.01,1.01,1.58,1.58,2.59,2.59v25.87Z"/>
          </g>
        </g>
      </g>
    </g>
  </g>
</svg>
