<?xml version="1.0" encoding="UTF-8"?>
<svg id="_Слой_2" data-name="Слой 2" xmlns="http://www.w3.org/2000/svg" xmlns:xlink="http://www.w3.org/1999/xlink" viewBox="0 0 407 123">
  <defs>
    <style>
      .cls-1 {
        fill: url(#_Безымянный_градиент_22);
      }

      .cls-2 {
        font-family: BankGothicRUSSMedium, 'BankGothic RUSS';
        font-size: 39.69px;
      }

      .cls-2, .cls-3 {
        fill: #fbf501;
      }

      .cls-4 {
        stroke: #000;
        stroke-width: 12.26px;
      }

      .cls-4, .cls-5 {
        stroke-miterlimit: 10;
      }

      .cls-5 {
        stroke: #fbf501;
        stroke-width: 2.16px;
      }
    </style>
    <linearGradient id="_Безымянный_градиент_22" data-name="Безымянный градиент 22" x1="5.16" y1="110.01" x2="407.01" y2="110.01" gradientUnits="userSpaceOnUse">
      <stop offset="0" stop-color="#fbf501" stop-opacity="0"/>
      <stop offset=".11" stop-color="#fbf501" stop-opacity=".21"/>
      <stop offset=".24" stop-color="#fbf501" stop-opacity=".42"/>
      <stop offset=".37" stop-color="#fbf501" stop-opacity=".6"/>
      <stop offset=".49" stop-color="#fbf501" stop-opacity=".74"/>
      <stop offset=".62" stop-color="#fbf501" stop-opacity=".86"/>
      <stop offset=".75" stop-color="#fbf501" stop-opacity=".94"/>
      <stop offset=".87" stop-color="#fbf501" stop-opacity=".98"/>
      <stop offset="1" stop-color="#fbf501"/>
    </linearGradient>
  </defs>
  <g id="_Слой_1-2" data-name="Слой 1">
    <g id="_3" data-name="3">
      <g id="_назад" data-name="назад">
        <g>
          <g>
            <g>
              <path class="cls-3" d="M55.31,14.86c-1.42,0-2.58,1.16-2.58,2.58s1.16,2.58,2.58,2.58,2.58-1.16,2.58-2.58-1.16-2.58-2.58-2.58Z"/>
              <path class="cls-3" d="M37.75,14.86c-1.42,0-2.58,1.16-2.58,2.58s1.16,2.58,2.58,2.58,2.58-1.16,2.58-2.58-1.16-2.58-2.58-2.58Z"/>
              <path class="cls-3" d="M20.19,14.88c-1.42,0-2.58,1.16-2.58,2.58s1.16,2.58,2.58,2.58,2.58-1.16,2.58-2.58-1.16-2.58-2.58-2.58Z"/>
              <path class="cls-3" d="M2.58,14.81c-1.42,0-2.58,1.16-2.58,2.58s1.16,2.58,2.58,2.58,2.58-1.16,2.58-2.58-1.16-2.58-2.58-2.58Z"/>
              <polygon class="cls-3" points="231.55 14.86 72.67 14.86 72.67 20.02 227.74 20.02 231.55 14.86"/>
              <polygon class="cls-3" points="72.67 7.6 244.7 7.6 230.78 27.99 142.9 27.98 142.92 37.59 308.15 37.83 308.36 96.74 407.01 96.74 407.01 37.12 407.01 7.6 407.01 1.34 407.01 0 57.89 0 72.67 7.6"/>
            </g>
            <g>
              <rect class="cls-4" x="324.47" y="15.52" width="66.28" height="66.29"/>
              <rect class="cls-5" x="324.47" y="15.52" width="66.28" height="66.29"/>
              <polygon class="cls-3" points="338.9 61.97 338.93 62 344.29 67.36 344.3 67.37 368.68 42.99 368.68 53.77 368.68 64.54 376.32 56.9 376.32 46.13 376.32 37.13 376.32 29.96 349.41 29.96 341.78 37.59 363.28 37.59 338.9 61.97"/>
            </g>
          </g>
          <polygon class="cls-1" points="233.05 117.81 216.62 97.12 5.16 97.05 12.98 102.21 214.12 102.29 230.55 122.97 407.01 122.92 407.01 117.76 233.05 117.81"/>
          <text class="cls-2" transform="translate(140.36 77.75)"><tspan x="0" y="0">назад</tspan></text>
        </g>
      </g>
    </g>
  </g>
</svg>