<?xml version="1.0" encoding="UTF-8"?>
<svg id="_Слой_2" data-name="Слой 2" xmlns="http://www.w3.org/2000/svg" viewBox="0 0 182 116">
  <defs>
    <style>
      .cls-1 {
        fill: #f3e724;
      }
    </style>
  </defs>
  <g id="_Слой_1-2" data-name="Слой 1">
    <polygon class="cls-1" points=".47 7.81 91.34 7.81 92.21 8.67 105.86 8.67 106.73 7.81 167.58 7.81 168.51 8.74 177.78 8.74 181.58 5.99 173.27 5.99 171.55 4.27 99.92 4.27 97.31 6.88 46.04 6.88 45.02 5.87 1.93 5.87 0 7.8 .47 7.81"/>
    <path class="cls-1" d="M176.23,16.02l.64.64,1.13,1.13v80.2l-1.77,1.77H5.35l-1.41-1.41-.36-.36V17.79l1.26-1.26.51-.51h170.88M177.71,12.44H3.87C2.36,13.95,1.51,14.8,0,16.31v83.16c1.51,1.51,2.36,2.36,3.87,3.87h173.84c1.51-1.51,2.36-2.36,3.87-3.87V16.31c-1.51-1.51-2.36-2.36-3.87-3.87h0Z"/>
    <polygon class="cls-1" points="177.6 107.04 168.51 107.04 167.58 107.97 106.73 107.97 105.86 107.11 92.21 107.11 91.34 107.97 .47 107.97 0 107.98 1.93 109.91 45.02 109.91 46.04 108.89 97.31 108.89 99.92 111.5 171.55 111.5 173.27 109.78 181.58 109.78 177.6 107.04"/>
    <g>
      <g>
        <polygon class="cls-1" points="46.49 5.7 43.31 0 47.17 0 50.35 5.7 46.49 5.7"/>
        <polygon class="cls-1" points="51.66 5.7 48.48 0 52.34 0 55.52 5.7 51.66 5.7"/>
        <polygon class="cls-1" points="56.86 5.7 53.68 0 57.54 0 60.72 5.7 56.86 5.7"/>
        <polygon class="cls-1" points="58.82 0 62.68 0 65.86 5.7 62 5.7 58.82 0"/>
      </g>
      <g>
        <polygon class="cls-1" points="67.19 5.7 64.01 0 67.87 0 71.06 5.7 67.19 5.7"/>
        <polygon class="cls-1" points="72.36 5.7 69.18 0 73.04 0 76.22 5.7 72.36 5.7"/>
        <polygon class="cls-1" points="77.56 5.7 74.38 0 78.24 0 81.42 5.7 77.56 5.7"/>
        <polygon class="cls-1" points="79.52 0 83.38 0 86.56 5.7 82.7 5.7 79.52 0"/>
      </g>
    </g>
    <g>
      <g>
        <polygon class="cls-1" points="83.38 115.63 86.56 109.94 82.7 109.94 79.52 115.63 83.38 115.63"/>
        <polygon class="cls-1" points="78.21 115.63 81.39 109.94 77.53 109.94 74.35 115.63 78.21 115.63"/>
        <polygon class="cls-1" points="73.01 115.63 76.2 109.94 72.33 109.94 69.15 115.63 73.01 115.63"/>
        <polygon class="cls-1" points="71.06 109.94 67.19 109.94 64.01 115.63 67.87 115.63 71.06 109.94"/>
      </g>
      <g>
        <polygon class="cls-1" points="62.68 115.63 65.86 109.94 62 109.94 58.82 115.63 62.68 115.63"/>
        <polygon class="cls-1" points="57.51 115.63 60.69 109.94 56.83 109.94 53.65 115.63 57.51 115.63"/>
        <polygon class="cls-1" points="52.31 115.63 55.49 109.94 51.63 109.94 48.45 115.63 52.31 115.63"/>
        <polygon class="cls-1" points="50.35 109.94 46.49 109.94 43.31 115.63 47.17 115.63 50.35 109.94"/>
      </g>
    </g>
  </g>
</svg>