<?xml version="1.0" encoding="UTF-8"?>
<svg 
  id="_Слой_2" 
  data-name="Слой 2" 
  xmlns="http://www.w3.org/2000/svg" 
  viewBox="0 0 458.54 5.12" 
  width="100%" 
  height="auto" 
  preserveAspectRatio="none">

  <defs>
    <style>
      .cls-1 {
        fill: url(#_Безымянный_градиент_237);
      }
    </style>
    <linearGradient id="_Безымянный_градиент_237" data-name="Безымянный градиент 237" x1="0" y1="0" x2="1" y2="0" gradientUnits="objectBoundingBox">
  <stop offset="0" stop-color="#1b1b1b" stop-opacity="1"/>
  <stop offset="1" stop-color="#1b1b1b" stop-opacity="0"/>
    </linearGradient>
  </defs>

  <g id="_Слой_1-2" data-name="Слой 1">
    <polygon class="cls-1" points="456.98 0 456.98 3.52 434.31 3.52 434.31 0 432.75 0 432.75 3.52 410.07 3.52 410.07 0 408.51 0 408.51 3.52 385.84 3.52 385.84 0 384.28 0 384.28 3.52 361.6 3.52 361.6 0 360.05 0 360.05 3.52 337.37 3.52 337.37 0 335.81 0 335.81 3.52 313.14 3.52 313.14 0 311.58 0 311.58 3.52 288.9 3.52 288.9 0 287.34 0 287.34 3.52 264.67 3.52 264.67 0 263.11 0 263.11 3.52 240.43 3.52 240.43 0 238.88 0 238.88 3.52 216.2 3.52 216.2 0 214.64 0 214.64 3.52 191.97 3.52 191.97 0 190.41 0 190.41 3.52 167.73 3.52 167.73 0 166.17 0 166.17 3.52 143.5 3.52 143.5 0 141.94 0 141.94 3.52 119.26 3.52 119.26 0 117.71 0 117.71 3.52 95.03 3.52 95.03 0 93.47 0 93.47 3.52 70.8 3.52 70.8 0 69.24 0 69.24 3.52 46.56 3.52 46.56 0 45 0 45 3.52 22.33 3.52 22.33 0 20.77 0 20.77 3.52 0 3.52 0 3.52 0 5.12 458.53 5.12 458.53 5.11 458.54 5.11 458.54 0 456.98 0"/>
  </g>
</svg>
