<?xml version="1.0" encoding="UTF-8"?>
<svg id="_Слой_1" data-name="Слой_1" xmlns="http://www.w3.org/2000/svg" width="814.7" height="8.9" version="1.1" xmlns:xlink="http://www.w3.org/1999/xlink" viewBox="0 0 814.7 8.9">
  <!-- Generator: Adobe Illustrator 29.0.1, SVG Export Plug-In . SVG Version: 2.1.0 Build 192)  -->
  <defs>
    <style>
      .st0 {
        fill: url(#_Безымянный_градиент_237);
      }
    </style>
    <linearGradient id="_Безымянный_градиент_237" data-name="Безымянный градиент 237" x1="-693.3" y1="4.5" x2="815.2" y2="4.5" gradientUnits="userSpaceOnUse">
      <stop offset="0" stop-color="#1b1b1b" stop-opacity="0"/>
      <stop offset=".5" stop-color="#1b1b1b"/>
      <stop offset="1" stop-color="#1b1b1b" stop-opacity="0"/>
    </linearGradient>
  </defs>
  <polygon class="st0" points="815.2 0 815.2 9.1 0 9.1 0 6.3 36.9 6.3 36.9 0 39.7 0 39.7 6.3 80 6.3 80 0 82.8 0 82.8 6.3 123.1 6.3 123.1 0 125.8 0 125.8 6.3 166.2 6.3 166.2 0 168.9 0 168.9 6.3 209.2 6.3 209.2 0 212 0 212 6.3 252.3 6.3 252.3 0 255.1 0 255.1 6.3 295.4 6.3 295.4 0 298.2 0 298.2 6.3 338.5 6.3 338.5 0 341.2 0 341.2 6.3 381.6 6.3 381.6 0 384.3 0 384.3 6.3 424.7 6.3 424.7 0 427.4 0 427.4 6.3 467.7 6.3 467.7 0 470.5 0 470.5 6.3 510.8 6.3 510.8 0 513.6 0 513.6 6.3 553.9 6.3 553.9 0 556.7 0 556.7 6.3 597 6.3 597 0 599.8 0 599.8 6.3 640.1 6.3 640.1 0 642.8 0 642.8 6.3 683.1 6.3 683.1 0 685.9 0 685.9 6.3 726.2 6.3 726.2 0 729 0 729 6.3 769.3 6.3 769.3 0 772.1 0 772.1 6.3 812.4 6.3 812.4 0 815.2 0"/>
</svg>