<?xml version="1.0" encoding="UTF-8"?>
<svg id="_Слой_2" data-name="Слой 2" xmlns="http://www.w3.org/2000/svg" viewBox="0 0 320 38.52">
  <defs>
    <style>
      .cls-1 {
        fill: #1b1b1b;
      }
    </style>
  </defs>
  <g id="_Слой_1-2" data-name="Слой 1">
    <path class="cls-1" d="M55.77,0v11.04h11.05V0h-11.05ZM11.82,0v11.04h11.04V0h-11.04ZM33.91,0v11.04h11.05V0h-11.05ZM171.05,33.88l-14.57-18.34-156.48.04v4.58l154.27-.04,14.57,18.34,142.79.06v-4.57s-140.58-.07-140.58-.07ZM304.37,0h-6.76l10.42,11.35h6.75l-10.41-11.35ZM290.86,0h-6.76l10.42,11.35h6.75l-10.41-11.35ZM277.31,0h-6.76l10.42,11.35h6.75l-10.41-11.35ZM263.8,0h-6.76l10.42,11.35h6.75l-10.41-11.35ZM265.37,15.83l-15.68-15.83L77.89.03l-.02,11.02,109.53.09,15.14,15.52,112.24.02,5.5-4.61v-6.26l-54.91.02Z"/>
  </g>
</svg>