<?xml version="1.0" encoding="UTF-8"?>
<svg id="_Слой_2" data-name="Слой 2" xmlns="http://www.w3.org/2000/svg" viewBox="0 0 203 36">
  <defs>
    <style>
      .cls-1 {
        fill: #1b1b1b;
      }
    </style>
  </defs>
  <g id="_Слой_1-2" data-name="Слой 1">
    <g>
      <path class="cls-1" d="M27.59,28.89c.71,0,1.29-.58,1.29-1.29s-.58-1.29-1.29-1.29-1.29.58-1.29,1.29.58,1.29,1.29,1.29Z"/>
      <path class="cls-1" d="M18.83,28.89c.71,0,1.29-.58,1.29-1.29s-.58-1.29-1.29-1.29-1.29.58-1.29,1.29.58,1.29,1.29,1.29Z"/>
      <path class="cls-1" d="M10.07,28.88c.71,0,1.29-.58,1.29-1.29s-.58-1.29-1.29-1.29-1.29.58-1.29,1.29.58,1.29,1.29,1.29Z"/>
      <path class="cls-1" d="M1.29,28.92c.71,0,1.29-.58,1.29-1.29s-.58-1.29-1.29-1.29-1.29.58-1.29,1.29.58,1.29,1.29,1.29Z"/>
      <polygon class="cls-1" points="203.04 17.79 203.04 36.3 0 36.3 0 32.51 122.07 32.51 115.12 22.34 71.29 22.35 71.3 17.55 159.2 17.54 167.98 8.77 194.15 8.78 203.04 17.79"/>
      <polygon class="cls-1" points="72.4 11.32 159.18 11.35 159.18 8.77 71.16 8.75 62.96 19.06 36.25 19.1 32.31 21.68 64.21 21.64 72.4 11.32"/>
      <rect class="cls-1" x="36.25" y="26.32" width="77.35" height="2.58"/>
      <rect class="cls-1" x="133.89" width="6.21" height="6.21"/>
      <rect class="cls-1" x="146.32" width="6.21" height="6.21"/>
      <rect class="cls-1" x="121.59" width="6.21" height="6.21"/>
    </g>
  </g>
</svg>