<?xml version="1.0" encoding="UTF-8"?>
<svg id="_Слой_2" data-name="Слой 2" xmlns="http://www.w3.org/2000/svg" width="45.99" height="29.53" viewBox="0 0 45.99 29.53">
  <defs>
    <style>
      .cls-1 {
        fill: #1a1a1a;
      }
    </style>
  </defs>
  <g id="_Слой_1-2" data-name="Слой 1">
    <g>
      <polygon class="cls-1" points="11.5 26.25 14.77 29.53 23.02 29.53 15.62 22.13 11.5 18.01 8.25 14.76 11.5 11.52 15.62 7.4 23.02 0 14.77 0 11.5 3.27 7.37 7.4 0 14.76 7.37 22.13 11.5 26.25"/>
      <polygon class="cls-1" points="22.97 14.76 22.98 14.77 30.38 22.17 34.5 26.29 37.74 29.53 45.99 29.53 38.63 22.17 34.5 18.05 31.22 14.76 34.5 11.48 38.63 7.36 45.99 0 37.74 0 30.38 7.36 22.98 14.76 22.97 14.76"/>
    </g>
  </g>
</svg>