<?xml version="1.0" encoding="UTF-8"?>
<svg id="_Слой_2" data-name="Слой 2" xmlns="http://www.w3.org/2000/svg" viewBox="0 0 105.58 101.46">
  <defs>
    <style>
      .cls-1 {
        fill: #1a1a1a;
      }
    </style>
  </defs>
  <g id="_Слой_1-2" data-name="Слой 1">
    <g>
      <path class="cls-1" d="M33.12,30.77h55.84c8.23,0,16.84,10.06,16.45,18.18-.42,9.77.54,19.98,0,29.7-.18,3.29-1.03,6.4-2.74,9.21-3.17,5.21-9.03,8.76-15.2,8.8-.09,6.12-8.88,6.54-9.4.34l-.53-.17H27.93s-.36.18-.36.18c-.67,6.18-8.99,5.75-9.57-.27-8.76-.38-16.26-6.98-17.55-15.68.11-10.6-.9-22.09-.22-32.64.71-10.97,9.87-18.53,20.76-17.74L80.95,5.53c-1.19-4.82,5.38-7.61,8.25-3.64,3.57,4.95-3.58,10.5-7.36,5.58h-.35s-48.36,23.29-48.36,23.29ZM17.26,37.85c-4.89.75-8.69,4.6-9.28,9.53l.02,33.01c.68,5.09,4.81,8.96,9.91,9.43h69.83c5.22-.47,9.52-4.66,9.94-9.93.82-10.39-.62-21.84,0-32.34-.58-5.2-4.56-9.16-9.75-9.76l-70.66.05Z"/>
      <path class="cls-1" d="M26.44,49.05c-.83,2.41-1.47,4.88-2.29,7.29-.49,1.46-.8,3.92-2.55,4.13-1,.12-4.4.11-5.23-.23-.92-.36-1.57-1.38-1.7-2.34-.27-1.98-.26-8.36-.02-10.36.19-1.54,1.58-2.63,3.08-2.72,8.36.53,17.61-.71,25.86,0,1.5.13,3,.94,3.23,2.57.3,2.09.24,8.18.02,10.36-.13,1.34-1.05,2.45-2.4,2.7-3.94-.26-8.43.4-12.3.02-1.14-.11-1.36-.4-1.8-1.37-1.3-2.91-1.86-6.59-3.07-9.58-.15-.37-.43-.54-.84-.48Z"/>
      <path class="cls-1" d="M54.14,61h36.4l.23.3c.23,1.72.49,3.76-.23,5.33h-36.4c-.17-.11-.23-.24-.26-.44-.21-1.21-.21-3.53,0-4.75.03-.2.09-.33.26-.44Z"/>
      <path class="cls-1" d="M54.76,58.18c.11-2.1,1.69-3.83,2.67-5.59l29.6-.04c.16,0,.24.09.35.18.32.26,1.69,2.64,1.94,3.16.15.32,1.11,2.29.52,2.29h-35.09Z"/>
      <path class="cls-1" d="M89.84,69.43c.53.15-.04,1.1-.17,1.41-.63,1.48-1.51,2.85-2.42,4.17l-29.42.03c-.61-.11-1.74-2.09-2.06-2.69-.46-.88-1.05-1.92-1.03-2.93h35.09Z"/>
      <path class="cls-1" d="M19.19,71.59c7.52-1.1,9.12,9.39,2.37,10.98-7.59,1.78-9.49-9.94-2.37-10.98Z"/>
      <path class="cls-1" d="M40.11,71.58c8.28-1.29,9.01,10.91,1.32,11.16-6.97.22-7.7-10.16-1.32-11.16Z"/>
      <path class="cls-1" d="M60.73,49.75l-.09-.53c6.49-5.58,17.08-5.62,23.48.09l-.26.44h-23.13Z"/>
      <path class="cls-1" d="M83.95,77.87c.58.58-1.77,1.9-2.17,2.14-5.92,3.45-14.34,3.38-19.94-.69-.54-.39-1.27-.69-1.1-1.45h23.21Z"/>
    </g>
  </g>
</svg>