<?xml version="1.0" encoding="UTF-8"?>
<svg id="_Слой_2" data-name="Слой 2" xmlns="http://www.w3.org/2000/svg" viewBox="0 0 731 55">
  <defs>
    <style>
      .cls-1 {
        fill: #1b1b1b;
      }
    </style>
  </defs>
  <g id="_Слой_1-2" data-name="Слой 1">
    <g>
      <path class="cls-1" d="M399.27,14.86c-1.42,0-2.58,1.16-2.58,2.58s1.16,2.58,2.58,2.58,2.58-1.16,2.58-2.58-1.16-2.58-2.58-2.58Z"/>
      <path class="cls-1" d="M381.71,14.86c-1.42,0-2.58,1.16-2.58,2.58s1.16,2.58,2.58,2.58,2.58-1.16,2.58-2.58-1.16-2.58-2.58-2.58Z"/>
      <path class="cls-1" d="M364.15,14.88c-1.42,0-2.58,1.16-2.58,2.58s1.16,2.58,2.58,2.58,2.58-1.16,2.58-2.58-1.16-2.58-2.58-2.58Z"/>
      <path class="cls-1" d="M346.54,14.81c-1.42,0-2.58,1.16-2.58,2.58s1.16,2.58,2.58,2.58,2.58-1.16,2.58-2.58-1.16-2.58-2.58-2.58Z"/>
      <polygon class="cls-1" points="332.64 14.86 174.05 14.86 177.58 20.02 332.64 20.02 332.64 14.86"/>
      <polygon class="cls-1" points="730.88 7.6 162.31 7.6 176.23 27.99 264.11 27.98 264.09 37.59 87.87 37.61 70.28 55.2 0 55.17 0 37.12 0 7.6 0 1.34 0 0 730.88 0 730.88 7.6"/>
    </g>
  </g>
</svg>