<?xml version="1.0" encoding="UTF-8"?>
<svg id="_Слой_2" data-name="Слой 2" xmlns="http://www.w3.org/2000/svg" viewBox="0 0 407 97">
  <defs>
    <style>
      .cls-1 {
        stroke: #fff;
        stroke-width: 2.16px;
      }

      .cls-1, .cls-2, .cls-3 {
        fill: #1b1b1b;
      }

      .cls-1, .cls-3 {
        stroke-miterlimit: 10;
      }

      .cls-4 {
        fill: #fff;
      }

      .cls-3 {
        stroke: #1b1b1b;
        stroke-width: 12.26px;
      }
    </style>
  </defs>
  <g id="_Слой_1-2" data-name="Слой 1">
    <g>
      <path class="cls-2" d="M55.31,14.86c-1.42,0-2.58,1.16-2.58,2.58s1.16,2.58,2.58,2.58,2.58-1.16,2.58-2.58-1.16-2.58-2.58-2.58Z"/>
      <path class="cls-2" d="M37.75,14.86c-1.42,0-2.58,1.16-2.58,2.58s1.16,2.58,2.58,2.58,2.58-1.16,2.58-2.58-1.16-2.58-2.58-2.58Z"/>
      <path class="cls-2" d="M20.19,14.88c-1.42,0-2.58,1.16-2.58,2.58s1.16,2.58,2.58,2.58,2.58-1.16,2.58-2.58-1.16-2.58-2.58-2.58Z"/>
      <path class="cls-2" d="M2.58,14.81c-1.42,0-2.58,1.16-2.58,2.58s1.16,2.58,2.58,2.58,2.58-1.16,2.58-2.58-1.16-2.58-2.58-2.58Z"/>
      <polygon class="cls-2" points="231.55 14.86 72.67 14.86 72.67 20.02 227.74 20.02 231.55 14.86"/>
      <polygon class="cls-2" points="72.67 7.6 244.7 7.6 230.78 27.99 142.9 27.98 142.92 37.59 308.15 37.83 308.36 96.74 407.01 96.74 407.01 37.12 407.01 7.6 407.01 1.34 407.01 0 72.67 0 72.67 7.6"/>
    </g>
    <g>
      <rect class="cls-3" x="324.47" y="15.52" width="66.28" height="66.29"/>
      <rect class="cls-1" x="324.47" y="15.52" width="66.28" height="66.29"/>
      <polygon class="cls-4" points="338.9 61.97 338.93 62 344.29 67.36 344.3 67.37 368.68 42.99 368.68 53.77 368.68 64.54 376.32 56.9 376.32 46.13 376.32 37.13 376.32 29.96 349.41 29.96 341.78 37.59 363.28 37.59 338.9 61.97"/>
    </g>
  </g>
</svg>