<?xml version="1.0" encoding="UTF-8"?>
<svg id="_Слой_2" data-name="Слой 2" xmlns="http://www.w3.org/2000/svg" width="101.19" height="101.46" viewBox="0 0 101.19 101.46">
  <defs>
    <style>
      .cls-1 {
        fill: #1a1a1a;
      }
    </style>
  </defs>
  <g id="_Слой_1-2" data-name="Слой 1">
    <g>
      <path class="cls-1" d="M56.89,31.81V6.85c0-.86.74-2.63,1.24-3.36,1.48-2.18,3.7-3.18,6.29-3.33,9.52-.53,19.52.41,29.09,0,3.69.01,6.85,2.53,7.51,6.18.23,29.54.2,59.14.02,88.68-.61,3.64-3.74,6.21-7.42,6.27-9.6-.41-19.64.54-29.19,0-2.28-.13-4.28-.9-5.78-2.67-.28-.33-.84-1.39-.96-1.5-.07-.06-.12-.11-.22-.11H8.72C3.83,96.57.1,92.45.01,87.55v-46.28c-.29-4.17,4.18-9.46,8.39-9.46h48.49ZM64.24,6.5c-.43.11-.83.28-.97.74v86.97c.17.54.75.74,1.26.77l29.44-.08c.66-.17.82-.63.88-1.26l-.08-86.3c-.17-.66-.63-.82-1.26-.88l-29.28.03ZM56.89,38.12H8.94c-1.31,0-2.81,2.07-2.62,3.36v45.97c-.11,1.26,1.35,3.26,2.62,3.26h47.95v-52.59Z"/>
      <path class="cls-1" d="M31.85.31c6.55-.41,15.54,2.01,20.01,7.08,2.01,2.28.1,5.74-2.91,5.26-1.18-.19-1.97-1.25-2.87-1.94-7.31-5.58-17.37-5.61-24.68,0-.87.67-1.65,1.71-2.79,1.92-3.13.58-5.08-3.03-2.9-5.35C19.45,3.32,26.5.64,31.85.31Z"/>
      <path class="cls-1" d="M31.96,9.29c4.22-.31,8.39.54,12.07,2.62,1.31.74,4.06,2.6,4.53,4.02s-.1,3.14-1.51,3.84c-2.57,1.27-3.93-1.04-5.88-2.22-4.49-2.72-10.35-2.72-14.84,0-2.03,1.23-4.08,4.13-6.64,1.71-1.74-1.65-.9-3.75.64-5.14,2.99-2.67,7.64-4.54,11.63-4.83Z"/>
      <path class="cls-1" d="M32.28,18.27c3.87-.32,8.77.93,11.52,3.81,2.24,2.34.4,5.89-2.78,5.45-1.05-.15-1.84-1.16-2.68-1.7-2.43-1.58-5.63-1.79-8.26-.55-1.32.62-2.46,2.13-3.83,2.26-3.07.29-4.74-3.16-2.62-5.4,1.96-2.07,5.83-3.63,8.64-3.86Z"/>
      <path class="cls-1" d="M42.67,63.24c.98-2.36,1.76-5.06,2.87-7.34,1.84-3.78,6.99-1.68,5.95,2.1-2.25,4.72-3.67,10.34-5.99,14.97-1.22,2.45-4.22,2.64-5.67.33l-6.25-15.77c-.42-3.67,4.32-5.06,6.01-1.73,1.12,2.2,1.75,4.99,2.86,7.18.05.1.06.25.22.26Z"/>
      <path class="cls-1" d="M25.99,60.24v11.6c0,2.9-3.97,4.19-5.71,1.86-.15-.21-.6-1.02-.6-1.22v-12.24h-2.83c-3.8,0-4.22-5.95-.33-6.31,4.04.23,8.41-.3,12.41,0,4.11.3,3.56,6.31-.22,6.31h-2.73Z"/>
      <path class="cls-1" d="M77.51,40.82c10.11-.85,17.91,8.18,15.15,18.03-3.17,11.3-18.2,13.96-25.11,4.48-6.38-8.75-.85-21.6,9.96-22.51ZM84.37,46.46c-3.28-1.97-7.46-2.07-10.69.05l1.66,1.73c2.29-1.27,5.08-1.24,7.38,0,.11,0,1.44-1.36,1.55-1.52.06-.09.15-.11.1-.27ZM70.63,49.56c-2.15,3.14-2.14,7.66,0,10.79l1.64-1.67c-1.13-2.38-1.29-5.02,0-7.38l-1.64-1.74ZM87.47,60.35c2-3.34,2.02-7.46,0-10.8l-1.69,1.68c.22.71.56,1.29.7,2.04.35,1.83.11,3.66-.71,5.32l1.71,1.76ZM78.36,51.51c-4.13.6-3.59,7.35,1.03,6.91,4.5-.43,3.92-7.63-1.03-6.91ZM84.37,63.45c.04-.16-.04-.18-.11-.27-.11-.16-1.44-1.51-1.55-1.52-2.33,1.23-5.06,1.27-7.38,0l-1.66,1.73c3.28,2.08,7.37,1.99,10.69.05Z"/>
      <path class="cls-1" d="M86.8,11.85c4.67-.73,5.02,6.14.72,6.28-3.92.13-4.32-5.72-.72-6.28Z"/>
      <path class="cls-1" d="M87.13,28.63c4.12-.38,4.65,5.8.81,6.27-4.42.54-4.94-5.89-.81-6.27Z"/>
      <path class="cls-1" d="M87.13,83.36c4.12-.38,4.65,5.8.81,6.27-4.42.54-4.94-5.89-.81-6.27Z"/>
      <path class="cls-1" d="M78.68,83.36c4.12-.39,4.69,5.8.81,6.27-4.45.54-4.84-5.88-.81-6.27Z"/>
      <path class="cls-1" d="M78.68,28.63c4.12-.39,4.69,5.8.81,6.27-4.45.54-4.83-5.88-.81-6.27Z"/>
      <path class="cls-1" d="M78.36,11.85c4.68-.73,5.06,6.14.72,6.28-3.8.12-4.35-5.71-.72-6.28Z"/>
      <path class="cls-1" d="M78.25,20.29c5.09-.86,5.21,6.87.09,6.16-3.2-.44-3.26-5.63-.09-6.16Z"/>
      <path class="cls-1" d="M86.7,20.29c5.05-.85,5.18,6.87.09,6.16-3.23-.45-3.31-5.62-.09-6.16Z"/>
      <path class="cls-1" d="M78.25,75.02c5.09-.86,5.21,6.87.09,6.16-3.2-.44-3.26-5.63-.09-6.16Z"/>
      <path class="cls-1" d="M86.7,75.02c5.05-.85,5.19,6.87.09,6.16-3.23-.45-3.3-5.62-.09-6.16Z"/>
      <path class="cls-1" d="M69.91,11.85c4.13-.7,5.25,5,1.61,6.1-4.36,1.32-5.6-5.42-1.61-6.1Z"/>
      <path class="cls-1" d="M70.34,28.63c3.98-.37,4.6,5.77.82,6.27-4.46.59-5.03-5.88-.82-6.27Z"/>
      <path class="cls-1" d="M70.34,83.36c3.98-.37,4.6,5.77.82,6.27-4.45.59-5.04-5.88-.82-6.27Z"/>
      <path class="cls-1" d="M69.91,20.3c3.97-.57,5.18,4.42,2.06,5.91-1.5.72-3.52.1-4.23-1.45-.81-1.76.16-4.17,2.17-4.46Z"/>
      <path class="cls-1" d="M69.91,75.02c3.97-.57,5.18,4.42,2.06,5.91-1.5.72-3.52.1-4.23-1.45-.81-1.76.16-4.17,2.17-4.46Z"/>
    </g>
  </g>
</svg>