<?xml version="1.0" encoding="UTF-8"?>
<svg xmlns="http://www.w3.org/2000/svg" viewBox="0 0 413 78">
  <defs>
    <style>
      .cls-1 {
        mix-blend-mode: lighten;
      }

      .cls-2 {
        isolation: isolate;
      }

      .cls-3 {
        mix-blend-mode: difference;
      }
    </style>
  </defs>
  <g class="cls-2">
    <g id="_Слой_2" data-name="Слой 2">
      <g id="_Слой_1-2" data-name="Слой 1">
        <g id="_ошибка_2" data-name="ошибка 2">
          <g class="cls-3">
            <g class="cls-1">
              <path d="M0,64.25l184.09-.84v-4.22h-2.91v-3.47h-2.91v-3.28h-2.81v-3.47h-2.81v-3.19h-2.72v-21.1h3.28v6.75h3v3.38h2.81v3.42l.14.14h4.78l.14-.14v-3.52h2.72v-3.19h4.5v-3.38h4.22v-3.28h2.72V3.1h2.91V0h23.64v3.19h2.91v15.94h-14.54v2.25h9.1v4.41h-11.63v5.63h5.72v7.6h-3.47v-3.47h-2.25v11.91h-2.91v4.97h-2.91v3.19h-2.91v2.53h4.31v4.41h-7.97v-3.28h-4.6v3.1h-3.24c-.27.25-.1.7-.14,1.03h37.24v.84h-37.24v1.22h-2.81v2.72h2.91v3.75h-6.28v-7.69H0ZM207.41,5.47c-.31-.31-1.71-.27-2.18-.23-.43.04-.74.25-.8.71-.05.42-.06,1.66,0,2.07.03.19.15.44.29.55.26.2,1.81.2,2.2.15s.66-.33.7-.7c.05-.4.05-1.87-.03-2.23-.02-.09-.13-.25-.2-.32Z"/>
              <polygon points="413.38 64.25 413.38 64.25 249.56 64.25 249.56 63.46 413.38 64.25"/>
              <path d="M227.98,34.14h.38s0-.56,0-.56h.38s.05-.56.05-.56h3.51s0,.56,0,.56h.38s.01.56.01.56h.27v17.64h2.34v-9.29h.38s.01-.36.01-.36c.41-.02.31-.19.42-.49h1.92s0,.42,0,.42l.28.06v.37s.38,0,.38,0v10.32h-.38s0,.47,0,.47h-.47s0,.56,0,.56h-.66s0,.66,0,.66h-.66s0,.75,0,.75h-3.56v12.57h.56s0,.84,0,.84h-8.25v-.47h2.72v-11.07h-4.03v-.84s-.75,0-.75,0v-.66s-.66,0-.66,0v-.66s-.56,0-.56,0v-.47s-.37,0-.37,0v-11.26h.38s0-.47,0-.47h.38s.05-.47.05-.47h2.1s0,.47,0,.47h.38s0,.47,0,.47h.38s0,10.13,0,10.13h2.72v-19.23Z"/>
              <path d="M245.15,42.16l.38-.14-.09-.37c.46.11.33-.46.43-.48h2.67s.01.47.01.47h.26s.03.36.03.36c.04.05.17.01.17.02v13.88h1.97v-7.78h.27s.02-.37.02-.37h.26s0-.38,0-.38h1.64s.06.37.06.37h.26s.02.38.02.38l.28.06v8.53s-.28.06-.28.06v.37s-.48,0-.48,0v.56s-.47,0-.47,0v.47s-.56,0-.56,0v.66s-3,0-3,0v9.85h-5.25v-.19h1.5l-.14-12.66h-3.05v-.66s-.56,0-.56,0v-.47s-.47,0-.47,0v-.47s-.47,0-.47,0v-.37s-.29-.06-.29-.06v-8.44c.11-.38.36.08.3-.51h.26s0-.38,0-.38h1.69s0,.37,0,.37h.26s.01.38.01.38l.28.05v7.74h2.06v-10.83Z"/>
              <rect x="233.42" y="63.4" width="11.16" height=".84"/>
              <rect x="194.22" y="68.28" width="2.06" height=".84"/>
              <rect x="235.49" y="68.84" width="2.25" height=".75"/>
              <rect x="207.35" y="67.34" width="1.13" height="1.13"/>
              <rect x="181.65" y="68.09" width="1.22" height=".85"/>
              <rect x="166.08" y="66.59" width="1.03" height=".94"/>
              <rect x="178.65" y="68.09" width=".94" height="1.03"/>
              <rect x="241.12" y="68.56" width="1.13" height=".85"/>
              <rect x="221.7" y="68.47" width=".85" height=".94"/>
              <rect x="230.52" y="70.16" width=".94" height=".85"/>
              <rect x="256.22" y="66.59" width=".85" height=".85"/>
              <rect x="252.09" y="67.81" width=".85" height=".85"/>
              <rect x="249.84" y="70.06" width=".75" height=".94"/>
            </g>
            <g>
              <path class="cls-1" d="M301.53,35.71l-.55-.21.14-.55c-.67.17-.49-.68-.63-.7h-3.93s-.02.69-.02.69l-.38.02-.05.51c-.05.07-.24.02-.24.03v20.45h-2.9v-11.47s-.4,0-.4,0l-.03-.53-.38-.02v-.54s-2.42,0-2.42,0l-.09.55-.38.02-.03.53-.41.08v12.56s.41.08.41.08v.55s.71,0,.71,0v.83s.69,0,.69,0v.69s.83,0,.83,0v.97s4.42,0,4.42,0v14.51s7.74,0,7.74,0v-.28s-2.21,0-2.21,0l.21-18.65h4.49s0-.97,0-.97h.83s0-.69,0-.69h.69s0-.69,0-.69h.69s.01-.54.01-.54l.41-.08v-12.43c-.16-.56-.53.12-.44-.75l-.38-.02v-.54s-2.5,0-2.5,0v.54s-.4.02-.4.02l-.02.55-.41.07v11.4h-3.04v-15.96Z"/>
              <path class="cls-1" d="M331.17,41.21l-.41-.15.1-.41c-.5.12-.36-.5-.47-.52h-2.9s-.01.51-.01.51l-.28.02-.04.38c-.04.05-.18.01-.18.02v15.11h-2.14v-8.48s-.3,0-.3,0l-.02-.39h-.28s-.01-.42-.01-.42h-1.78s-.07.4-.07.4h-.28s-.02.41-.02.41l-.3.06v9.28s.3.06.3.06v.4s.52,0,.52,0v.61s.51,0,.51,0v.51s.61,0,.61,0v.72s3.27,0,3.27,0v10.72s5.72,0,5.72,0v-.2s-1.63,0-1.63,0l.15-13.79h3.32s0-.72,0-.72h.61s0-.51,0-.51h.51s0-.51,0-.51h.51s0-.4,0-.4l.3-.06v-9.19c-.12-.41-.39.09-.33-.55h-.28s-.01-.42-.01-.42h-1.84s-.01.4-.01.4h-.28s-.01.42-.01.42l-.31.05v8.42h-2.25v-11.79Z"/>
              <path class="cls-1" d="M313.52,49.39l.29-.11-.07-.29c.36.09.26-.36.33-.37h2.08s0,.36,0,.36h.2s.03.28.03.28c.03.04.13,0,.13.02v10.83h1.54v-6.07h.21s.02-.29.02-.29h.2s0-.3,0-.3h1.28s.05.29.05.29h.2s.02.29.02.29l.22.04v6.65s-.22.04-.22.04v.29s-.37,0-.37,0v.44s-.37,0-.37,0v.37s-.44,0-.44,0v.51s-2.34,0-2.34,0v7.68h-4.1v-.15h1.17l-.11-9.88h-2.38v-.51s-.44,0-.44,0v-.37s-.37,0-.37,0v-.37s-.37,0-.37,0v-.29s-.22-.04-.22-.04v-6.58c.09-.29.28.07.23-.4h.2s0-.3,0-.3h1.32s0,.29,0,.29h.2s0,.3,0,.3l.22.04v6.04h1.61v-8.45Z"/>
              <rect x="281.04" y="71.2" width=".85" height=".85"/>
              <rect x="285.09" y="68.33" width=".85" height=".85"/>
              <rect x="286.12" y="72.22" width=".85" height=".85"/>
              <rect x="291.95" y="76.8" width=".85" height=".85"/>
              <rect x="290.4" y="69.17" width=".85" height=".85"/>
              <rect x="293.01" y="73.34" width=".85" height=".85"/>
              <rect x="302.07" y="66.78" width=".85" height=".85"/>
              <rect x="294.16" y="65.3" width=".85" height=".85"/>
              <rect x="303.52" y="71.62" width=".85" height=".85"/>
              <rect x="313.54" y="71.2" width=".85" height=".85"/>
              <rect x="331.87" y="65.62" width=".85" height=".85"/>
              <rect x="336.07" y="66.78" width=".85" height=".85"/>
              <rect x="308.1" y="73.73" width=".85" height=".85"/>
              <rect x="308.3" y="67.62" width=".85" height=".45"/>
              <rect x="333.82" y="68.27" width=".85" height=".45"/>
              <rect x="317.04" y="67" width=".85" height=".85"/>
              <rect x="319.84" y="65.53" width=".85" height=".85"/>
              <rect x="320.26" y="68.07" width=".85" height=".85"/>
              <rect x="325.07" y="66.36" width=".85" height=".85"/>
              <rect x="321.68" y="71.2" width=".85" height=".85"/>
            </g>
            <g>
              <path class="cls-1" d="M93.46,32.84l.49-.19-.13-.49c.6.15.44-.6.56-.63h3.51s.02.62.02.62l.34.02.05.46c.05.06.22.02.22.03v18.29h2.59s0-10.26,0-10.26h.36s.03-.49.03-.49l.34-.02v-.49s2.17,0,2.17,0l.08.49.34.02.03.48.37.07v11.23s-.37.07-.37.07v.49s-.63,0-.63,0v.74s-.62,0-.62,0v.62s-.74,0-.74,0v.87s-3.95,0-3.95,0v12.97h-6.92v-.25h1.98l-.19-16.68h-4.02v-.87s-.74,0-.74,0v-.62s-.62,0-.62,0v-.62s-.62,0-.62,0v-.49s-.38-.07-.38-.07v-11.12c.14-.5.48.11.39-.67l.34-.02v-.49s2.24,0,2.24,0v.49s.36.02.36.02v.49s.38.06.38.06v10.19h2.72s0-14.27,0-14.27Z"/>
              <path class="cls-1" d="M114.81,42.73l-.35-.13.09-.35c-.43.11-.31-.43-.4-.45h-2.52s-.01.44-.01.44h-.24s-.03.34-.03.34c-.03.04-.16.01-.16.02v13.1h-1.86v-7.35s-.26,0-.26,0l-.02-.34h-.25s0-.36,0-.36h-1.54s-.06.35-.06.35h-.25s-.02.35-.02.35l-.26.05v8.05s.26.05.26.05v.35s.45,0,.45,0v.53s.44,0,.44,0v.44s.53,0,.53,0v.62s2.83,0,2.83,0v9.3s4.96,0,4.96,0v-.18s-1.42,0-1.42,0l.13-11.95h2.88s0-.62,0-.62h.53s0-.44,0-.44h.44s0-.44,0-.44h.44s0-.35,0-.35l.26-.05v-7.96c-.1-.36-.34.08-.28-.48h-.25s0-.36,0-.36h-1.59s0,.35,0,.35h-.25s-.01.36-.01.36l-.27.04v7.3h-1.95v-10.23Z"/>
              <rect x="113.77" y="69.11" width="1.02" height="1.02"/>
              <rect x="87.03" y="67.54" width="1.02" height="1.02"/>
              <rect x="84.59" y="65.1" width="1.02" height="1.02"/>
              <rect x="120.11" y="64.79" width="1.02" height=".54"/>
              <rect x="89.24" y="65.57" width="1.02" height=".54"/>
              <rect x="115.6" y="65.34" width="1.02" height="1.02"/>
              <rect x="100.84" y="67.03" width="1.02" height="1.02"/>
              <rect x="105.64" y="65.34" width="1.02" height="1.02"/>
              <rect x="102.51" y="65.1" width="1.02" height="1.02"/>
              <rect x="103.92" y="69.11" width="1.02" height="1.02"/>
            </g>
          </g>
        </g>
      </g>
    </g>
  </g>
</svg>