<?xml version="1.0" encoding="UTF-8"?>
<svg id="_Слой_2" data-name="Слой 2" xmlns="http://www.w3.org/2000/svg" xmlns:xlink="http://www.w3.org/1999/xlink" viewBox="0 0 64 64">
  <defs>
    <style>
      .cls-1 {
        fill: url(#_Безымянный_градиент_26);
      }
    </style>
    <linearGradient id="_Безымянный_градиент_26" data-name="Безымянный градиент 26" x1="0" y1="64.19" x2="32.09" y2="32.09" gradientUnits="userSpaceOnUse">
      <stop offset="0" stop-color="#1a1a1a"/>
      <stop offset="1" stop-color="#1a1a1a" stop-opacity=".1"/>
    </linearGradient>
  </defs>
  <g id="_Слой_1-2" data-name="Слой 1">
    <g id="_ошибка_2" data-name="ошибка 2">
      <polygon class="cls-1" points="47.76 63.62 47.32 61.12 46.88 63.59 44.07 63.5 43.64 60.65 43.21 63.47 40.39 63.37 39.97 60.34 39.55 63.34 36.7 63.25 36.29 60.1 35.88 63.22 33.03 63.12 32.61 59.57 32.21 63.09 29.35 62.99 28.94 58.81 28.53 62.97 25.67 62.87 25.26 58.81 24.87 62.84 21.98 62.74 21.59 58.81 21.2 62.71 18.29 62.61 17.91 58.81 17.54 62.59 14.6 62.49 14.24 58.81 13.88 62.46 10.92 62.36 10.56 58.81 10.21 62.34 7.23 62.24 6.89 58.81 6.55 62.21 2.13 62.06 1.99 58.03 6.11 57.62 1.96 57.21 1.85 53.92 6.11 53.49 1.82 53.07 1.71 49.8 6.11 49.37 1.68 48.93 1.57 45.69 6.11 45.24 1.53 44.79 1.42 41.57 6.11 41.11 1.39 40.64 1.28 37.46 6.11 36.98 1.25 36.5 1.14 33.35 6.11 32.86 1.11 32.36 1 29.22 5.25 28.73 .97 28.23 .86 25.1 4.66 24.6 .83 24.1 .72 20.99 4.39 20.47 .68 19.96 .58 16.87 4.05 16.35 .54 15.81 .44 12.76 3.51 12.22 .4 11.67 0 0 0 64.19 64.19 64.19 47.76 63.62"/>
    </g>
  </g>
</svg>