<?xml version="1.0" encoding="UTF-8"?>
<svg id="_Слой_2" data-name="Слой 2" xmlns="http://www.w3.org/2000/svg" 
     xmlns:xlink="http://www.w3.org/1999/xlink" viewBox="0 0 1920 65" 
     preserveAspectRatio="xMinYMin meet" style="overflow: visible; width: 100%; height: auto;">
  <defs>
    <style>
      .cls-1 {
        fill: #fbf501;
      }

      .cls-2 {
        fill: url(#_Безымянный_градиент_27);
      }
    </style>
    <linearGradient id="_Безымянный_градиент_27" data-name="Безымянный градиент 27"
                    x1="0" y1="0.62" x2="1" y2="0.62" gradientUnits="objectBoundingBox">
      <stop offset="0" stop-color="#fbf501"/>
      <stop offset=".09" stop-color="#fbf501" stop-opacity=".95"/>
      <stop offset=".25" stop-color="#fbf501" stop-opacity=".83"/>
      <stop offset=".46" stop-color="#fbf501" stop-opacity=".63"/>
      <stop offset=".71" stop-color="#fbf501" stop-opacity=".35"/>
      <stop offset="1" stop-color="#fbf501" stop-opacity="0"/>
    </linearGradient>
  </defs>
  <g id="_Слой_1-2" data-name="Слой 1">
    <g id="_2" data-name="2">
      <g id="_низ_подчеркнивание" data-name="низ подчеркнивание">
        <g>
          <path class="cls-1" d="M311.9,51.36c1.26,0,2.29-1.02,2.29-2.29s-1.02-2.29-2.29-2.29-2.29,1.02-2.29,2.29,1.02,2.29,2.29,2.29Z"/>
          <path class="cls-1" d="M327.48,51.36c1.26,0,2.29-1.02,2.29-2.29s-1.02-2.29-2.29-2.29-2.29,1.02-2.29,2.29,1.02,2.29,2.29,2.29Z"/>
          <path class="cls-1" d="M343.05,51.34c1.26,0,2.29-1.02,2.29-2.29s-1.02-2.29-2.29-2.29-2.29,1.02-2.29,2.29,1.02,2.29,2.29,2.29Z"/>
          <path class="cls-1" d="M358.67,51.41c1.26,0,2.29-1.02,2.29-2.29s-1.02-2.29-2.29-2.29-2.29,1.02-2.29,2.29,1.02,2.29,2.29,2.29Z"/>
          <polygon class="cls-1" points="232.24 20.13 246.81 38.47 303.55 38.54 296.5 33.96 249.02 33.89 234.45 15.55 77.97 15.59 77.97 20.17 232.24 20.13"/>
          <rect class="cls-1" x="158.99" y="46.78" width="137.52" height="4.58"/>
          <rect class="cls-1" x="111.88" width="11.05" height="11.05"/>
          <rect class="cls-1" x="89.79" width="11.05" height="11.05"/>
          <rect class="cls-1" x="133.74" width="11.05" height="11.05"/>
        </g>
        <polygon class="cls-2" points="1920 64.54 143.94 57.8 156.29 39.72 234.22 39.73 234.2 31.21 77.93 31.19 62.33 15.59 15.8 15.61 0 31.62 0 57.8 0 63.35 0 64.54 1920 64.54"/>
      </g>
    </g>
  </g>
</svg>
