<?xml version="1.0" encoding="UTF-8"?>
<svg id="_Слой_2" data-name="Слой 2" xmlns="http://www.w3.org/2000/svg" viewBox="0 0 100.82 101.99">
  <defs>
    <style>
      .cls-1 {
        fill: #FBF501;
      }
    </style>
  </defs>
  <g id="_Слой_1-2" data-name="Слой 1">
    <g>
      <path class="cls-1" d="M5.44,43.21c1.07.35,2.36.76,3.44,1.03.44.11,1.17.38,1.58.26.1-.03,1.37-1.16,1.52-1.33.28-.32.52-.7.65-1.11.48-1.8.29-3.6.1-5.42-.02-.18-.1-.35-.23-.48-.09-.09-.21-.14-.33-.15l-8.99-.61c-.51-.03-1.01.17-1.35.55-1.32,1.46-2.7,3.69-1.09,5.28.66.65,3.67,1.64,4.71,1.99Z"/>
      <path class="cls-1" d="M95.74,0h-48.43c-2.8,0-5.08,2.28-5.08,5.08v19.62c-5.21.5-10.86-.14-15.84,1.07-2.8.68-3.24,1.72-4.65,4.01-2.42,3.93-4.45,8.15-6.88,12.07-3.27,5.28-9.05,5.34-12.43,9.36-.86,1.03-.64,1.65-1.19,2.6-.25.44-.76.66-.83,1.19,1.72,8.44.68,17.35,1.34,25.86.15,1.91,1.09,2.71,1.32,4.09.29,1.71-.23,5.29,1.56,6.16,1.27.61,3.98.33,5.45.37,3.12.1,6.34.35,9.47,0,1.48-.17,3.44-.31,3.69-2.13.1-.7-.15-.85-.19-1.34-.07-.77,1.59-1.79,2.28-1.99,4.41-1.31,12.11-.06,16.9.05v10.82c0,2.8,2.28,5.08,5.08,5.08h48.43c2.8,0,5.08-2.28,5.08-5.08V5.08c0-2.8-2.28-5.08-5.08-5.08ZM24.9,63.81c-3.51,4.13-12.18.46-15.51-2.55-1.39-1.26-3.28-3.71-3.54-5.6-.09-.63.06-.8.44-1.26.6-.74,1.24-.94,2.18-.68,2.66.75,5.59,2.41,8.42,3.22,2.96.85,6.73,1.06,9.51,1.99.31.1.62.17.68.55.1.73-1.62,3.67-2.17,4.32ZM38.37,46.14c-6.42-.46-13.56-1.04-19.81-2.52-.38-.09-1.28-.22-1.19-.73.06-.33.5-1.37.66-1.79,1.06-2.91,2.76-6.4,4.32-9.08.43-.73,1.37-2.34,1.92-2.89.5-.51,1.31-.64,1.98-.79,4.43-1.01,10.49-1.03,15.1-1.14.18,0,.5-.01.88-.03v19.29c-1.3-.09-2.64-.23-3.86-.31ZM98.14,96.9c0,1.32-1.08,2.4-2.4,2.4h-48.43c-1.32,0-2.4-1.08-2.4-2.4V5.08c0-1.32,1.08-2.4,2.4-2.4h48.43c1.32,0,2.4,1.08,2.4,2.4v91.82Z"/>
      <rect class="cls-1" x="55.34" y="25.92" width="14.9" height="14.9" rx="3.01" ry="3.01"/>
      <rect class="cls-1" x="55.34" y="43.55" width="14.9" height="14.9" rx="3.01" ry="3.01"/>
      <rect class="cls-1" x="74.76" y="24.07" width="14.9" height="14.9" rx="3.01" ry="3.01" transform="translate(1.79 67.36) rotate(-45)"/>
      <rect class="cls-1" x="72.92" y="43.55" width="14.9" height="14.9" rx="3.01" ry="3.01"/>
      <rect class="cls-1" x="72.92" y="61.18" width="14.9" height="14.9" rx="3.01" ry="3.01"/>
      <rect class="cls-1" x="54.87" y="63.02" width="14.9" height="14.9" rx="3.01" ry="3.01" transform="translate(-31.58 64.7) rotate(-45)"/>
    </g>
  </g>
</svg>