<?xml version="1.0" encoding="UTF-8"?>
<svg id="_Слой_2" data-name="Слой 2" xmlns="http://www.w3.org/2000/svg" width="11.84mm" height="11.23mm" viewBox="0 0 33.57 31.83">
  <defs>
    <style>
      .cls-1 {
        fill: #f3e724;
        stroke: #f3e724;
        stroke-miterlimit: 10;
        stroke-width: .77px;
      }
    </style>
  </defs>
  <g id="_Слой_1-2" data-name="Слой 1">
    <g>
      <path class="cls-1" d="M21.6,10.78c.1.08,1.45.03,1.7.04,2.21.04,4.43.11,6.63.17.64.02,1.69-.09,2.26.15,1.06.44,1.31,1.85.52,2.67l-5.68,4.24c-.68.44-1.42-.35-.94-1l5.56-4.16c.21-.12.17-.45-.07-.48-.27-.04-.68,0-.98,0-2.22-.06-4.45-.12-6.67-.17-.9-.02-1.92.04-2.8-.03-.37-.03-.6-.19-.72-.55-1.2-3.11-2.1-6.42-3.33-9.51-.1-.25-.17-.48-.5-.28l-3.55,10.02c-.17.21-.34.3-.62.33-.98.08-2.07-.04-3.06.07l-4.75.1c-.55-.03-1.11.02-1.66.03-.29,0-.7-.04-.98,0-.22.03-.29.3-.13.45l8.39,6.28c.19.19.24.36.22.63l-3.05,9.99c-.06.24.23.42.42.26l7.9-5.44c.74-.34,1.36.55.8,1.12l-8.08,5.56c-1.23.67-2.63-.37-2.41-1.73l2.92-9.6L.8,13.73c-.68-.76-.5-1.97.37-2.49.36-.22.73-.24,1.14-.26,2.6-.12,5.24-.07,7.84-.13.08,0,.15-.03.23-.04.54-.01,1.08.04,1.61-.04L15.27,1.39c.61-1.37,2.47-1.33,3.04.03l3.29,9.35Z"/>
      <path class="cls-1" d="M25.17,24.48h4.86s.16.06.19.07c.52.21.54,1,.04,1.24-.03.02-.25.09-.27.09h-4.83v4.93c0,.07-.16.29-.22.34-.32.27-.8.21-1.03-.13-.02-.03-.12-.22-.12-.24v-4.9h-4.83s-.21-.07-.24-.08c-.47-.24-.5-.93-.05-1.21.04-.03.22-.1.26-.1h4.86v-4.9s.09-.21.12-.24c.28-.4.92-.41,1.17.03.02.03.08.16.08.18v4.93Z"/>
    </g>
  </g>
</svg>