<?xml version="1.0" encoding="UTF-8"?>
<svg id="_Слой_1" data-name="Слой_1" xmlns="http://www.w3.org/2000/svg" width="355.3" height="86" version="1.1" viewBox="0 0 355.3 86">
  <!-- Generator: Adobe Illustrator 29.0.1, SVG Export Plug-In . SVG Version: 2.1.0 Build 192)  -->
  <defs>
    <style>
      .st0 {
        fill: none;
      }

      .st1 {
        fill: #FBF501;
      }
    </style>
  </defs>
  <g>
    <path class="st1" d="M355.3,10.1V0H0v10h25.1v6.7c0,0-25.1,36.2-25.1,36.2v14.2c.1,0,76.2,0,76.2,0l26.4-40.4,150.3-.3,22.9,23.9,56.2.5,23.4-24.6v-10h-204.3s0-6.2,0-6.2h204.2ZM345.1,26.3l-16.3,17.2-49.9-.5-15.9-16.6h82.1Z"/>
    <circle class="st1" cx="12.9" cy="80.4" r="5.1" transform="translate(-.4 0) rotate(-.3)"/>
    <circle class="st1" cx="37.8" cy="80.4" r="5.1" transform="translate(-.4 .2) rotate(-.3)"/>
    <circle class="st1" cx="62.8" cy="80.4" r="5.1" transform="translate(-.4 .3) rotate(-.3)"/>
    <polygon class="st1" points="127 35.5 171.7 86 181.3 86 136.6 35.5 127 35.5"/>
    <polygon class="st1" points="108.4 35.5 153.1 86 162.7 86 118 35.5 108.4 35.5"/>
    <polygon class="st1" points="146.1 35.5 190.8 86 200.4 86 155.7 35.5 146.1 35.5"/>
    <polygon class="st1" points="165.3 35.5 210 86 219.6 86 174.9 35.5 165.3 35.5"/>
    <polygon class="st1" points="184.4 35.5 229.1 86 238.7 86 194 35.5 184.4 35.5"/>
    <polygon class="st1" points="203.5 35.5 248.3 86 257.9 86 213.1 35.5 203.5 35.5"/>
    <polygon class="st1" points="222.6 35.5 267.3 86 276.9 86 232.2 35.5 222.6 35.5"/>
    <polygon class="st1" points="242.7 35.5 287.4 86 297 86 252.3 35.5 242.7 35.5"/>
  </g>
  <path class="st1" d="M355.3,26.3h0Z"/>
  <path class="st1" d="M355.3,26.3h0Z"/>
  <polyline class="st0" points="355.3 0 355.3 10.1 355.3 16.2 355.3 26.3"/>
</svg>