<?xml version="1.0" encoding="UTF-8"?>
<svg id="_Слой_2" data-name="Слой 2" xmlns="http://www.w3.org/2000/svg" viewBox="0 0 407 177">
  <defs>
    <style>
      .cls-1 {
        stroke: #1b1b1b;
        stroke-width: 2.16px;
      }

      .cls-1, .cls-2, .cls-3 {
        fill: #FBF501;
      }

      .cls-1, .cls-3 {
        stroke-miterlimit: 10;
      }

      .cls-4 {
        fill: #1b1b1b;
      }

      .cls-3 {
        stroke: #FBF501;
        stroke-width: 12.26px;
      }
    </style>
  </defs>
  <g id="_Слой_1-2" data-name="Слой 1">
    <g>
      <g>
        <path class="cls-2" d="M55.31,14.86c-1.42,0-2.58,1.16-2.58,2.58s1.16,2.58,2.58,2.58,2.58-1.16,2.58-2.58-1.16-2.58-2.58-2.58Z"/>
        <path class="cls-2" d="M37.75,14.86c-1.42,0-2.58,1.16-2.58,2.58s1.16,2.58,2.58,2.58,2.58-1.16,2.58-2.58-1.16-2.58-2.58-2.58Z"/>
        <path class="cls-2" d="M20.19,14.88c-1.42,0-2.58,1.16-2.58,2.58s1.16,2.58,2.58,2.58,2.58-1.16,2.58-2.58-1.16-2.58-2.58-2.58Z"/>
        <path class="cls-2" d="M2.58,14.81c-1.42,0-2.58,1.16-2.58,2.58s1.16,2.58,2.58,2.58,2.58-1.16,2.58-2.58-1.16-2.58-2.58-2.58Z"/>
        <polygon class="cls-2" points="231.55 14.86 72.67 14.86 72.67 20.02 227.74 20.02 231.55 14.86"/>
        <path class="cls-2" d="M407.01,37.12V0H82.21l-9.53,7.6h172.03l-13.92,20.39h-87.88s9.21,9.6,9.21,9.6l115.24.18c15.97,15.94,123.73,123.67,139.7,139.61l-.05-140.26ZM396.51,145.73h0c-18.27-18.27-28.51-28.51-46.78-46.78h0s46.78,0,46.78,0v46.78Z"/>
      </g>
      <g>
        <path class="cls-3" d="M324.47,15.52v51.29c5.86,5.86,9.14,9.14,15,15h51.28V15.52h-66.28Z"/>
        <path class="cls-1" d="M324.47,15.52v51.29c5.86,5.86,9.14,9.14,15,15h51.28V15.52h-66.28Z"/>
        <polygon class="cls-4" points="338.9 61.97 338.93 62 344.29 67.36 344.3 67.37 368.68 42.99 368.68 53.77 368.68 64.54 376.32 56.9 376.32 46.13 376.32 37.13 376.32 29.96 349.41 29.96 341.78 37.59 363.28 37.59 338.9 61.97"/>
      </g>
    </g>
    <path class="cls-2" d="M270.68,79.47h-82.06c-8.34-8.34-13.02-13.02-21.36-21.36h0s82.06,0,82.06,0c8.34,8.34,13.02,13.02,21.36,21.36h0Z"/>
  </g>
</svg>