<?xml version="1.0" encoding="UTF-8"?>
<svg id="_Слой_2" data-name="Слой 2" xmlns="http://www.w3.org/2000/svg" viewBox="0 0 32 32">
  <defs>
    <style>
      .cls-1 {
        fill: #FBF501;
      }
    </style>
  </defs>
  <g id="_Слой_1-2" data-name="Слой 1">
    <g>
      <polygon class="cls-1" points="3.13 21.09 0 21.09 .02 32.13 11.04 32.13 11.04 29 3.15 29 3.13 21.09"/>
      <polygon class="cls-1" points="28.98 29 20.97 29 20.97 32.13 32.12 32.13 32.12 21.09 28.98 21.09 28.98 29"/>
      <polygon class="cls-1" points="21.04 0 21.04 3.13 28.98 3.13 28.98 11.12 32.12 11.12 32.12 0 21.04 0"/>
      <polygon class="cls-1" points="3.15 3.13 11.08 3.13 11.08 0 .02 0 0 11.12 3.13 11.12 3.15 3.13"/>
      <path class="cls-1" d="M5.33,26.83h21.45V5.38H5.33v21.45ZM17.27,16.14l7.95-7.94v15.89l-7.95-7.94ZM24.19,25.26H8.15l8.02-8.02,8.02,8.02ZM16.17,15.03L8.08,6.95h16.17l-8.08,8.08ZM15.06,16.14l-8.16,8.15V7.98l8.16,8.15Z"/>
    </g>
  </g>
</svg>