<?xml version="1.0" encoding="UTF-8"?>
<svg id="_Слой_2" data-name="Слой 2" xmlns="http://www.w3.org/2000/svg" viewBox="0 0 96.98 101.46">
  <defs>
    <style>
      .cls-1 {
        fill: #FBF501;
      }
    </style>
  </defs>
  <g id="_Слой_1-2" data-name="Слой 1">
    <g>
      <path class="cls-1" d="M76.98,0c8.46,1.61,7.12,8.77,7.12,15.28,0,1.85,0,6.85,0,6.85h-5.07v-4.86h-44.59v67.89h44.64c.15-.02-.05-.14-.05-.16v-26.44s.11-.27.18-.28l4.9.06.1,35.08c-.19,4.32-3.37,7.76-7.71,8.05h-39.42c-4.01-.23-7.27-3.29-7.72-7.29V7.18c.4-3.64,3.57-6.82,7.24-7.18h40.38ZM61.62,10.87c.47-.47.26-1.24-.26-1.57-.75-.48-1.39-.13-2.14-.12-2.22.04-4.45-.03-6.66-.06-1.09.22-1.11,1.86-.04,2,1.49.2,3.82,0,5.41-.01.66,0,1.12.04,1.83,0,.51-.03,1.49.12,1.86-.25ZM59.56,89.94c-1.75-2.01-5.12-1.83-6.53.47-1.72,2.82.28,6.33,3.6,6.23s5.09-4.22,2.93-6.7Z"/>
      <path class="cls-1" d="M83.88,28.16c.6-1.23.65-3.16,2.49-2.63.64.18,2.84,1.06,3.38,1.37,1.44.84.01,2.57-.25,3.68.96.58,1.62,1.48,2.38,2.28,1.12-.15,2.5-1.58,3.46-.43.26.31,1.37,3.06,1.52,3.56.53,1.87-1.47,1.89-2.7,2.55.34,1.12.12,2.24.1,3.38,1.16.68,3.07.62,2.68,2.47-.09.42-1.22,3.08-1.47,3.5-.81,1.39-2.54-.05-3.62-.3-.65.87-1.37,1.74-2.32,2.29.11,1.16,1.69,2.67.34,3.63-.3.21-3.1,1.39-3.49,1.48-1.85.42-1.79-1.43-2.48-2.59-.59-.2-1.22.06-1.78.07-.38,0-1.47-.32-1.73,0-.32.38-.56,1.8-.98,2.26-.32.35-.93.39-1.37.3-.57-.11-2.78-1.08-3.36-1.39-1.65-.89-.23-2.33.13-3.59-.6-.58-1.23-1.14-1.82-1.74-.22-.22-.39-.73-.75-.66-1.18.21-2.47,1.81-3.46.12-.28-.48-1.52-3.55-1.48-3.97.09-1.08,1.97-1.35,2.73-1.8l.05-3.39c-1.12-.72-3.14-.67-2.69-2.49.17-.69,1.05-2.83,1.42-3.44.91-1.49,2.4-.12,3.57.23l2.39-2.35c-.19-1.27-1.79-2.81-.12-3.69.46-.24,3.56-1.48,3.89-1.46,1.2.07,1.37,1.92,1.9,2.72l3.44.04ZM78.1,35.66c-3.09,2.79-2.6,7.89,1.08,9.91,4.88,2.67,10.42-1.97,8.76-7.25-1.27-4.04-6.71-5.49-9.84-2.66Z"/>
      <rect class="cls-1" y="25.9" width="24.29" height="5.07"/>
      <rect class="cls-1" x="6.05" y="36.05" width="18.25" height="5.07"/>
      <rect class="cls-1" x="18.25" y="46.19" width="6.05" height="5.07"/>
      <path class="cls-1" d="M59.56,89.94c2.16,2.49.38,6.61-2.93,6.7s-5.32-3.42-3.6-6.23c1.41-2.3,4.78-2.48,6.53-.47Z"/>
      <path class="cls-1" d="M61.62,10.87c-.37.37-1.35.22-1.86.25-.71.04-1.17,0-1.83,0-1.58,0-3.92.21-5.41.01-1.07-.14-1.05-1.78.04-2,2.21.03,4.44.09,6.66.06.75-.01,1.39-.36,2.14.12.52.33.72,1.1.26,1.57Z"/>
    </g>
  </g>
</svg>