<?xml version="1.0" encoding="UTF-8"?>
<svg id="_Слой_1" data-name="Слой_1" xmlns="http://www.w3.org/2000/svg" width="32.6" height="24.3" version="1.1" viewBox="0 0 32.6 24.3">
  <!-- Generator: Adobe Illustrator 29.0.1, SVG Export Plug-In . SVG Version: 2.1.0 Build 192)  -->
  <defs>
    <style>
      .st0 {
        fill: #fff;
      }
    </style>
  </defs>
  <g>
    <path class="st0" d="M27.9,7.7c-.2,3.3-2.3,6.7-4.4,9-2.3,2.5-5.4,4.7-9,6.3-2.3-1-4.3-2.3-6.1-3.7l-1.1.7c2.2,1.8,4.7,3.3,7.3,4.4,3.5-1.5,7-3.8,9.9-6.8,2.3-2.5,4.8-6.5,4.7-10.5l-1.2.7Z"/>
    <path class="st0" d="M3,15.3l1.1-.6c-1.5-2.2-2.5-4.5-2.8-6.6-.2-2.1.2-3.9,1.4-5.2,1-1.1,2.4-1.7,3.9-1.7.6,0,1.2,0,1.8.3,2.1.7,4,2.6,5,5.1l.8,2,.6-.4.7-1.6c1.5-3.2,4.3-5.4,7-5.4s.7,0,1,.1c.6.1,1.1.3,1.7.7l1.1-.7c-.8-.6-1.7-1-2.6-1.2-.4,0-.8-.1-1.3-.1-3.3,0-6.5,2.7-8.1,6.1-1.2-2.8-3.3-5-5.8-5.8C8.1.1,7.3,0,6.6,0,2.9,0-.5,3.1,0,8.3c.3,2.5,1.5,5,2.9,7.1Z"/>
  </g>
  <path class="st0" d="M.5,20.9c-.2,0-.3-.1-.4-.3-.2-.3,0-.7.2-.8L31.7,1.1c.3-.2.7,0,.8.2.2.3,0,.7-.2.8L.9,20.9c-.1,0-.3.1-.4,0Z"/>
</svg>