<?xml version="1.0" encoding="UTF-8"?>
<svg id="_Слой_1" data-name="Слой_1" xmlns="http://www.w3.org/2000/svg" width="27.8" height="22.9" version="1.1" viewBox="0 0 27.8 22.9">
  <!-- Generator: Adobe Illustrator 29.0.1, SVG Export Plug-In . SVG Version: 2.1.0 Build 192)  -->
  <defs>
    <style>
      .st0 {
        fill: #fff;
      }
    </style>
  </defs>
  <path class="st0" d="M23.7,22.5s.1-.2.1-.3v-7.6l-2,1.6v4.7H2.2V6.4h4.5c.6-.7,1.3-1.4,2.1-2H1c-.2,0-.4.1-.6.3-.2.2-.3.5-.3.7v16.6c0,.5.4.8.9.9h22.1c.2,0,.5-.3.7-.5Z"/>
  <path class="st0" d="M27.9,6.4L19.4,0v4.1h-.4c-1.8,0-3.4.3-4.8.9-4.4,1.8-5.9,6.2-6.5,8.7,0,.2,0,.4-.1.6.2-.3.4-.6.6-.8,2.6-3.6,5.3-4.9,10.1-5,.1,0,.3,0,.4,0,.1,0,.2,0,.3,0h.4s0,4.4,0,4.4l8.5-6.4Z"/>
</svg>