<?xml version="1.0" encoding="UTF-8"?>
<svg id="_Слой_2" data-name="Слой 2" xmlns="http://www.w3.org/2000/svg" xmlns:xlink="http://www.w3.org/1999/xlink" viewBox="0 0 1005 16">
  <defs>
    <style>
      .cls-1 {
        fill: url(#_Безымянный_градиент_96);
      }
    </style>
    <linearGradient id="_Безымянный_градиент_96" data-name="Безымянный градиент 96" x1="0" y1="7.87" x2="1004.73" y2="7.87" gradientUnits="userSpaceOnUse">
      <stop offset="0" stop-color="#FBF501" stop-opacity="0"/>
      <stop offset=".5" stop-color="#FBF501" stop-opacity=".8"/>
      <stop offset="1" stop-color="#FBF501" stop-opacity="0"/>
    </linearGradient>
  </defs>
  <g id="_Слой_1-2" data-name="Слой 1">
    <polygon class="cls-1" points="540.83 0 532.35 8.48 471.69 8.48 463.2 0 0 0 0 10.78 7.23 10.78 7.23 7.26 24.23 7.26 24.23 10.78 31.46 10.78 31.46 7.26 48.47 7.26 48.47 10.78 55.7 10.78 55.7 7.26 72.7 7.26 72.7 10.78 79.93 10.78 79.93 7.26 96.94 7.26 96.94 10.78 104.16 10.78 104.16 7.26 121.17 7.26 121.17 10.78 128.4 10.78 128.4 7.26 145.4 7.26 145.4 10.78 152.63 10.78 152.63 7.26 169.64 7.26 169.64 10.78 176.87 10.78 176.87 7.26 193.87 7.26 193.87 10.78 201.1 10.78 201.1 7.26 218.11 7.26 218.11 10.78 225.33 10.78 225.33 7.26 242.34 7.26 242.34 10.78 249.57 10.78 249.57 7.26 266.57 7.26 266.57 10.78 273.8 10.78 273.8 7.26 290.81 7.26 290.81 10.78 298.04 10.78 298.04 7.26 315.04 7.26 315.04 10.78 322.27 10.78 322.27 7.26 339.28 7.26 339.28 10.78 346.5 10.78 346.5 7.26 363.51 7.26 363.51 10.78 370.74 10.78 370.74 7.26 387.74 7.26 387.74 10.78 394.97 10.78 394.97 7.26 411.98 7.26 411.98 10.78 419.21 10.78 419.21 7.26 436.21 7.26 436.21 10.78 443.44 10.78 443.44 7.26 460.2 7.26 468.68 15.74 535.36 15.74 543.84 7.26 561.29 7.26 561.29 10.78 568.52 10.78 568.52 7.26 585.52 7.26 585.52 10.78 592.75 10.78 592.75 7.26 609.76 7.26 609.76 10.78 616.99 10.78 616.99 7.26 633.99 7.26 633.99 10.78 641.22 10.78 641.22 7.26 658.23 7.26 658.23 10.78 665.46 10.78 665.46 7.26 682.46 7.26 682.46 10.78 689.69 10.78 689.69 7.26 706.69 7.26 706.69 10.78 713.92 10.78 713.92 7.26 730.93 7.26 730.93 10.78 738.16 10.78 738.16 7.26 755.16 7.26 755.16 10.78 762.39 10.78 762.39 7.26 779.4 7.26 779.4 10.78 786.62 10.78 786.62 7.26 803.63 7.26 803.63 10.78 810.86 10.78 810.86 7.26 827.86 7.26 827.86 10.78 835.09 10.78 835.09 7.26 852.1 7.26 852.1 10.78 859.33 10.78 859.33 7.26 876.33 7.26 876.33 10.78 883.56 10.78 883.56 7.26 900.57 7.26 900.57 10.78 907.79 10.78 907.79 7.26 924.8 7.26 924.8 10.78 932.03 10.78 932.03 7.26 949.03 7.26 949.03 10.78 956.26 10.78 956.26 7.26 973.27 7.26 973.27 10.78 980.5 10.78 980.5 7.26 997.5 7.26 997.5 10.78 1004.73 10.78 1004.73 0 540.83 0"/>
  </g>
</svg>