<?xml version="1.0" encoding="UTF-8"?>
<svg id="_Слой_2" data-name="Слой 2" xmlns="http://www.w3.org/2000/svg" viewBox="0 0 49 46">
  <defs>
    <style>
      .cls-1 {
        fill: #fbf501;
      }
    </style>
  </defs>
  <g id="_Слой_1-2" data-name="Слой 1">
    <g id="_1" data-name="1">
      <g id="_иконки" data-name="иконки">
        <g>
          <polygon class="cls-1" points="21.11 15.31 16.68 13.77 21.48 0 27.27 0 32.07 13.77 27.64 15.31 24.38 5.95 21.11 15.31"/>
          <polygon class="cls-1" points="37.45 28.67 34.5 25.02 42.22 18.79 32.3 18.87 32.26 14.18 46.84 14.06 48.79 19.51 37.45 28.67"/>
          <polygon class="cls-1" points="11.34 28.67 0 19.51 1.95 14.06 16.53 14.18 16.49 18.87 6.57 18.79 14.29 25.02 11.34 28.67"/>
          <polygon class="cls-1" points="11.88 46.26 7.22 42.82 11.55 28.89 16.03 30.28 13.09 39.75 21.28 34.17 23.92 38.04 11.88 46.26"/>
          <path class="cls-1" d="M25.87,39.52v-2.7l.7-.7h15.08l.7.7v2.7l-.7.7h-15.08l-.7-.7Z"/>
          <path class="cls-1" d="M35.46,46.41h-2.7l-.7-.7v-15.08l.7-.7h2.7l.7.7v15.08l-.7.7Z"/>
        </g>
      </g>
    </g>
  </g>
</svg>