<?xml version="1.0" encoding="UTF-8"?>
<svg id="_Слой_2" data-name="Слой 2" xmlns="http://www.w3.org/2000/svg" viewBox="0 0 61 402">
  <defs>
    <style>
      .cls-1 {
        fill: #fbf501;
        opacity: .33;
      }
    </style>
  </defs>
  <g id="_Слой_1-2" data-name="Слой 1">
    <g id="_1" data-name="1">
      <g id="_иконки" data-name="иконки">
        <g>
          <polygon class="cls-1" points="60.91 322.08 60.91 305.75 60.91 305.72 50.87 295.56 50.84 295.56 10.3 254.51 10.3 284.11 47.79 322.08 47.83 322.08 60.91 335.32 60.91 322.08"/>
          <polygon class="cls-1" points="60.91 195.89 13.4 147.79 13.39 147.79 10.3 144.66 10.3 174.26 10.32 174.28 10.33 174.28 60.91 225.49 60.91 195.89"/>
          <polygon class="cls-1" points="60.91 232.51 10.3 181.27 10.3 210.87 60.91 262.11 60.91 232.51"/>
          <polygon class="cls-1" points="10.34 402.32 2.85 394.73 0 397.58 0 402.32 10.34 402.32"/>
          <polygon class="cls-1" points="10.3 386.42 5.83 390.89 17.12 402.32 46.35 402.32 10.3 365.82 10.3 386.42"/>
          <polygon class="cls-1" points="10.36 322.08 60.91 373.26 60.91 343.66 13.4 295.56 13.37 295.56 10.3 292.45 10.3 322.05 10.32 322.08 10.36 322.08"/>
          <polygon class="cls-1" points="60.91 269.29 10.3 218.05 10.3 247.65 60.91 298.89 60.91 269.29"/>
          <polygon class="cls-1" points="10.3 329.04 10.3 358.64 53.44 402.32 60.91 402.32 60.91 380.28 10.3 329.04"/>
          <polygon class="cls-1" points="60.91 48.1 18.47 5.13 10.3 13.3 10.3 26.46 60.91 77.7 60.91 48.1"/>
          <polygon class="cls-1" points="22.61 .98 60.91 39.76 60.91 10.16 50.87 0 23.59 0 22.61 .98"/>
          <polygon class="cls-1" points="60.91 84.72 10.3 33.48 10.3 63.08 60.91 114.32 60.91 84.72"/>
          <polygon class="cls-1" points="60.91 174.28 60.91 157.96 60.91 157.95 50.87 147.79 50.86 147.79 10.3 106.72 10.3 136.32 47.79 174.28 47.8 174.28 60.91 187.55 60.91 174.28"/>
          <polygon class="cls-1" points="60.91 121.5 10.3 70.26 10.3 99.86 60.91 151.1 60.91 121.5"/>
        </g>
      </g>
    </g>
  </g>
</svg>