<?xml version="1.0" encoding="UTF-8"?>
<svg id="_Слой_2" data-name="Слой 2" xmlns="http://www.w3.org/2000/svg" xmlns:xlink="http://www.w3.org/1999/xlink" viewBox="0 0 155.68 428.99">
  <defs>
    <style>
      .cls-1 {
        stroke: url(#_Безымянный_градиент_67);
      }

      .cls-1, .cls-2, .cls-3, .cls-4 {
        fill: none;
        stroke-miterlimit: 10;
        stroke-width: 1.69px;
      }

      .cls-5, .cls-6 {
        fill: #fbf501;
      }

      .cls-2 {
        stroke: url(#_Безымянный_градиент_67-2);
      }

      .cls-6 {
        opacity: .33;
      }

      .cls-3 {
        stroke: url(#_Безымянный_градиент_67-4);
      }

      .cls-4 {
        stroke: url(#_Безымянный_градиент_67-3);
      }
    </style>
    <linearGradient id="_Безымянный_градиент_67" data-name="Безымянный градиент 67" x1="0" y1="226.65" x2="120.14" y2="226.65" gradientUnits="userSpaceOnUse">
      <stop offset="0" stop-color="#fbf501" stop-opacity="0"/>
      <stop offset="1" stop-color="#fbf501"/>
    </linearGradient>
    <linearGradient id="_Безымянный_градиент_67-2" data-name="Безымянный градиент 67" y1="130" x2="104.8" y2="130" xlink:href="#_Безымянный_градиент_67"/>
    <linearGradient id="_Безымянный_градиент_67-3" data-name="Безымянный градиент 67" y1="226.15" x2="104.8" y2="226.15" xlink:href="#_Безымянный_градиент_67"/>
    <linearGradient id="_Безымянный_градиент_67-4" data-name="Безымянный градиент 67" y1="317.05" x2="104.8" y2="317.05" xlink:href="#_Безымянный_градиент_67"/>
  </defs>
  <g id="_Слой_1-2" data-name="Слой 1">
    <g id="_1" data-name="1">
      <g id="_иконки" data-name="иконки">
        <g>
          <g>
            <rect class="cls-5" x="126.24" y="8.42" width="9.83" height="9.83"/>
            <path class="cls-5" d="M134.55,9.94v6.79h-6.79v-6.79h6.79M136.07,8.42h-9.83v9.83h9.83v-9.83h0Z"/>
          </g>
          <path class="cls-5" d="M140.36,4.12v18.42h-18.42V4.12h18.42M144.49,0h-26.67v26.67h26.67V0h0Z"/>
        </g>
        <g>
          <polyline class="cls-1" points="119.54 24.94 104.8 39.69 104.8 413.04 89.74 428.1 0 428.1"/>
          <line class="cls-2" x1="104.8" y1="130" y2="130"/>
          <line class="cls-4" x1="104.8" y1="226.15" y2="226.15"/>
          <line class="cls-3" x1="104.8" y1="317.05" y2="317.05"/>
        </g>
        <g>
          <polygon class="cls-6" points="155.68 348.75 155.68 332.42 155.68 332.39 145.65 322.23 145.61 322.23 105.07 281.18 105.07 310.78 142.56 348.75 142.6 348.75 155.68 361.99 155.68 348.75"/>
          <polygon class="cls-6" points="155.68 222.56 108.18 174.46 108.17 174.46 105.07 171.33 105.07 200.93 105.1 200.95 105.11 200.95 155.68 252.16 155.68 222.56"/>
          <polygon class="cls-6" points="155.68 259.18 105.07 207.94 105.07 237.54 155.68 288.78 155.68 259.18"/>
          <polygon class="cls-6" points="105.11 428.99 97.62 421.4 94.77 424.25 94.77 428.99 105.11 428.99"/>
          <polygon class="cls-6" points="105.07 413.09 100.6 417.56 111.89 428.99 141.12 428.99 105.07 392.49 105.07 413.09"/>
          <polygon class="cls-6" points="105.13 348.75 155.68 399.93 155.68 370.33 108.18 322.23 108.14 322.23 105.07 319.12 105.07 348.72 105.1 348.75 105.13 348.75"/>
          <polygon class="cls-6" points="155.68 295.96 105.07 244.72 105.07 274.32 155.68 325.56 155.68 295.96"/>
          <polygon class="cls-6" points="105.07 355.71 105.07 385.31 148.21 428.99 155.68 428.99 155.68 406.95 105.07 355.71"/>
          <polygon class="cls-6" points="155.68 74.77 113.24 31.8 105.07 39.97 105.07 53.13 155.68 104.37 155.68 74.77"/>
          <polygon class="cls-6" points="117.38 27.65 155.68 66.43 155.68 36.83 145.65 26.67 118.37 26.67 117.38 27.65"/>
          <polygon class="cls-6" points="155.68 111.39 105.07 60.15 105.07 89.75 155.68 140.99 155.68 111.39"/>
          <polygon class="cls-6" points="155.68 200.95 155.68 184.63 155.68 184.62 145.65 174.46 145.63 174.46 105.07 133.39 105.07 162.99 142.56 200.95 142.58 200.95 155.68 214.22 155.68 200.95"/>
          <polygon class="cls-6" points="155.68 148.17 105.07 96.93 105.07 126.53 155.68 177.77 155.68 148.17"/>
        </g>
      </g>
    </g>
  </g>
</svg>