<?xml version="1.0" encoding="UTF-8"?>
<svg id="_Слой_2" data-name="Слой 2" xmlns="http://www.w3.org/2000/svg" viewBox="0 0 49 48">
  <defs>
    <style>
      .cls-1 {
        fill: #fbf501;
      }
    </style>
  </defs>
  <g id="_Слой_1-2" data-name="Слой 1">
    <g id="_1" data-name="1">
      <g id="_иконки" data-name="иконки">
        <path class="cls-1" d="M42.66,27.18h-11.93l-1.77,3.06-10.07-5.4,1.31-2.26-1.29-2.24,13.99-7.43c.69.58,1.36,1.17,2.17,1.58,4.35,2.21,9.71-.2,10.89-4.92C47.22,4.58,43.3-.28,38.15.01c-4.28.24-7.55,3.97-7.25,8.24.02.23.22,1.01.11,1.14l-14.07,7.44s-.04,0-.06,0l-1.73-3H5.05L0,22.58l5.05,8.75h5.23c.11,0,.21,0,.32,0h4.55l1.62-2.81c.08-.05.15-.09.21-.07l9.97,5.28-2.18,3.78,5.96,10.33h11.93l5.96-10.33-5.96-10.33ZM38.52,3.28c2.28,0,4.14,1.85,4.14,4.14s-1.85,4.14-4.14,4.14-4.14-1.85-4.14-4.14,1.85-4.14,4.14-4.14ZM11.9,29.82l-6.94-1.86-1.86-6.94,5.08-5.08,6.94,1.86,1.86,6.94-5.08,5.08Z"/>
      </g>
    </g>
  </g>
</svg>