<?xml version="1.0" encoding="UTF-8"?>
<svg id="_Слой_2" data-name="Слой 2" xmlns="http://www.w3.org/2000/svg" viewBox="0 0 50 45">
  <defs>
    <style>
      .cls-1 {
        stroke: #fbf501;
        stroke-miterlimit: 10;
        stroke-width: 1.42px;
      }

      .cls-1, .cls-2 {
        fill: #fbf501;
      }
    </style>
  </defs>
  <g id="_Слой_1-2" data-name="Слой 1">
    <g id="_1" data-name="1">
      <g id="_иконки" data-name="иконки">
        <g>
          <polygon class="cls-1" points="33.26 36.94 25.89 36.94 27.89 33.74 31.58 33.74 46.15 12.58 42.66 5.83 32.73 5.83 26.48 12.29 19.36 3.9 9.53 3.9 4.61 12.74 6.68 15.5 2.65 15.49 .84 12.95 7.65 .71 20.84 .71 26.63 7.54 31.37 2.64 44.6 2.64 49.87 12.81 33.26 36.94"/>
          <polygon class="cls-1" points="28.96 44.58 22.81 44.58 19.14 39.11 22.99 39.11 24.51 41.39 30.73 41.39 28.96 44.58"/>
          <path class="cls-2" d="M2.65,19.96v14.19c.71.71,1.11,1.11,1.82,1.82h14.19c.71-.71,1.11-1.11,1.82-1.82v-14.19c-.71-.71-1.11-1.11-1.82-1.82H4.47c-.71.71-1.11,1.11-1.82,1.82ZM18.85,28.29l-.98.98H5.27l-.98-.98v-2.46l.98-.98h12.59l.98.98v2.46Z"/>
        </g>
      </g>
    </g>
  </g>
</svg>